<svg id="icon" width="48" height="48" viewBox="0 0 48 48" fill="none" xmlns="http://www.w3.org/2000/svg">
<path d="M12.9812 0H0.906656C0.405329 0 0 0.38823 0 0.865854V12.431C0 12.9112 0.405329 13.2994 0.906656 13.2994H12.9812C13.4825 13.2994 13.8878 12.9112 13.8878 12.431V0.865854C13.8878 0.38823 13.4825 0 12.9812 0ZM12.0745 11.5652H1.81065V1.73426H12.0745V11.5652V11.5652Z" fill="currentColor"/>
<path d="M12.9812 17.3477H0.906656C0.405329 17.3477 0 17.7359 0 18.2161V29.7813C0 30.2589 0.405329 30.6497 0.906656 30.6497H12.9812C13.4825 30.6497 13.8878 30.2615 13.8878 29.7813V18.2161C13.8878 17.7359 13.4825 17.3477 12.9812 17.3477ZM12.0745 28.9154H1.81065V19.0845H12.0745V28.9154V28.9154Z" fill="currentColor"/>
<path d="M12.9812 34.698H0.906656C0.405329 34.698 0 35.0863 0 35.5664V47.1316C0 47.6092 0.405329 48 0.906656 48H12.9812C13.4825 48 13.8878 47.6118 13.8878 47.1316V35.5664C13.8878 35.0863 13.4825 34.698 12.9812 34.698ZM12.0745 46.2632H1.81065V36.4323H12.0745V46.2632V46.2632Z" fill="currentColor"/>
<path d="M18.7175 4.62558H47.0932C47.5945 4.62558 47.9999 4.23735 47.9999 3.75717C47.9999 3.27699 47.5945 2.88876 47.0932 2.88876H18.7175C18.2162 2.88876 17.8109 3.27699 17.8109 3.75717C17.8109 4.23735 18.2162 4.62558 18.7175 4.62558Z" fill="currentColor"/>
<path d="M18.7175 10.4081H35.0187C35.52 10.4081 35.9253 10.0199 35.9253 9.53971C35.9253 9.05953 35.52 8.67386 35.0187 8.67386H18.7175C18.2162 8.67386 17.8109 9.06209 17.8109 9.54227C17.8109 10.0224 18.2162 10.4081 18.7175 10.4081Z" fill="currentColor"/>
<path d="M47.0932 20.2391H18.7175C18.2162 20.2391 17.8109 20.6273 17.8109 21.1075C17.8109 21.5877 18.2162 21.9759 18.7175 21.9759H47.0932C47.5945 21.9759 47.9999 21.5877 47.9999 21.1075C47.9999 20.6273 47.5945 20.2391 47.0932 20.2391Z" fill="currentColor"/>
<path d="M18.7175 27.7584H35.0187C35.52 27.7584 35.9253 27.3702 35.9253 26.89C35.9253 26.4098 35.52 26.0216 35.0187 26.0216H18.7175C18.2162 26.0216 17.8109 26.4098 17.8109 26.89C17.8109 27.3702 18.2162 27.7584 18.7175 27.7584Z" fill="currentColor"/>
<path d="M47.0932 37.5894H18.7175C18.2162 37.5894 17.8109 37.9776 17.8109 38.4578C17.8109 38.9354 18.2162 39.3262 18.7175 39.3262H47.0932C47.5945 39.3262 47.9999 38.9379 47.9999 38.4578C47.9999 37.9776 47.5945 37.5894 47.0932 37.5894Z" fill="currentColor"/>
<path d="M35.0187 43.3719H18.7175C18.2162 43.3719 17.8109 43.7601 17.8109 44.2403C17.8109 44.7179 18.2162 45.1087 18.7175 45.1087H35.0187C35.52 45.1087 35.9253 44.7204 35.9253 44.2403C35.9253 43.7601 35.52 43.3719 35.0187 43.3719Z" fill="currentColor"/>
</svg>
