<svg id="icon" width="72" height="72" viewBox="0 0 72 72" fill="none" xmlns="http://www.w3.org/2000/svg">
<path d="M46.7081 19.7726C46.7081 19.0747 46.2429 18.6095 45.545 18.6095H16.4678C15.7699 18.6095 15.3047 19.0747 15.3047 19.7726C15.3047 20.4704 15.7699 20.9357 16.4678 20.9357H45.545C46.2429 20.9357 46.7081 20.4704 46.7081 19.7726Z" fill="currentColor"/>
<path d="M16.4678 12.794H45.545C46.2429 12.794 46.7081 12.3287 46.7081 11.6309C46.7081 10.933 46.2429 10.4678 45.545 10.4678H16.4678C15.7699 10.4678 15.3047 10.933 15.3047 11.6309C15.3047 12.3287 15.7699 12.794 16.4678 12.794Z" fill="currentColor"/>
<path d="M16.4678 26.7511C15.7699 26.7511 15.3047 27.2163 15.3047 27.9142C15.3047 28.612 15.7699 29.0773 16.4678 29.0773H33.9141C34.612 29.0773 35.0772 28.612 35.0772 27.9142C35.0772 27.2163 34.612 26.7511 33.9141 26.7511H16.4678Z" fill="currentColor"/>
<path d="M66.7133 44.1974L65.2013 40.9408L65.6665 37.3352C65.7828 36.87 65.5502 36.4047 65.2013 36.1721L62.1773 34.1949L60.6652 30.9382C60.4326 30.473 60.0837 30.2403 59.6185 30.2403H56.0129V1.16309C56.0129 0.465236 55.5476 0 54.8498 0H7.16309C6.46524 0 6 0.465236 6 1.16309V58.1545C6 58.8524 6.46524 59.3176 7.16309 59.3176H39.7296C40.4275 59.3176 40.8927 58.8524 40.8927 58.1545C40.8927 57.4567 40.4275 56.9914 39.7296 56.9914H8.32618V2.32618H53.6867V28.7283L52.9888 28.2631C52.6399 28.0305 52.0584 28.0305 51.7094 28.2631L48.6854 30.2403H45.0798C44.6146 30.2403 44.2657 30.473 44.033 30.9382L42.521 34.1949L39.497 36.1721C39.1481 36.4047 38.9155 36.87 39.0318 37.3352L39.497 40.9408L37.985 44.1974C37.7524 44.6627 37.8687 45.1279 38.2176 45.4768L40.5438 48.1519L41.009 51.7575C41.1253 52.2228 41.3579 52.5717 41.8232 52.688L44.382 53.3858V53.5022V70.8322C44.382 71.2974 44.6146 71.7627 45.0798 71.879C45.1961 71.9953 45.4288 71.9953 45.5451 71.9953C45.894 71.9953 46.1266 71.879 46.3592 71.6464L52.4073 65.5983L58.4554 71.6464C58.8043 71.9953 59.2695 72.1116 59.7348 71.879C60.2 71.6464 60.4326 71.2974 60.4326 70.8322V53.5022V53.3858L62.9914 52.688C63.4567 52.5717 63.8056 52.2228 63.8056 51.7575L64.2708 48.1519L66.597 45.4768C66.8296 45.0116 66.9459 44.5464 66.7133 44.1974ZM53.2215 63.2721C52.7562 62.8069 52.0584 62.8069 51.5931 63.2721L46.7082 68.0408V55.2468L47.6386 56.4099C47.9876 56.7588 48.4528 56.8751 48.8017 56.7588L51.2442 56.0609V60.4807C51.2442 61.1785 51.7094 61.6438 52.4073 61.6438C53.1052 61.6438 53.5704 61.1785 53.5704 60.4807V56.1773L55.6639 56.7588C55.7803 56.7588 55.8966 56.7588 56.0129 56.7588C56.3618 56.7588 56.7107 56.6425 56.9434 56.4099L57.9901 55.2468V68.0408L53.2215 63.2721ZM62.1773 46.8725C62.0609 46.9888 61.9446 47.2215 61.9446 47.4541L61.4794 50.5944L58.4554 51.5249C58.2227 51.6412 58.1064 51.7575 57.8738 51.8738L55.7803 54.3163L52.7562 53.3858C52.5236 53.2695 52.291 53.2695 52.0584 53.3858L49.0343 54.3163L46.9408 51.8738C46.8245 51.7575 46.5918 51.5249 46.3592 51.5249L43.2189 50.5944L42.7536 47.4541C42.7536 47.2215 42.6373 46.9888 42.521 46.8725L40.4275 44.43L41.7069 41.5223C41.8232 41.2897 41.8232 41.0571 41.8232 40.8245L41.3579 37.6841L44.033 35.9395C44.2657 35.8232 44.382 35.5906 44.4983 35.4743L45.7777 32.5665H49.0343C49.267 32.5665 49.4996 32.4502 49.6159 32.3339L52.291 30.5893L54.9661 32.3339C55.1987 32.4502 55.315 32.5665 55.5476 32.5665H58.8043L60.0837 35.4743C60.2 35.7069 60.3163 35.8232 60.5489 35.9395L63.224 37.6841L62.7588 40.8245C62.7588 41.0571 62.7588 41.2897 62.8751 41.5223L64.1545 44.43L62.1773 46.8725Z" fill="currentColor"/>
<path d="M52.5235 36.0558C48.6853 36.0558 45.5449 39.1961 45.5449 43.0343C45.5449 46.8725 48.6853 50.0129 52.5235 50.0129C56.3617 50.0129 59.502 46.8725 59.502 43.0343C59.502 39.1961 56.3617 36.0558 52.5235 36.0558ZM52.5235 47.6867C49.9647 47.6867 47.8711 45.5931 47.8711 43.0343C47.8711 40.4755 49.9647 38.382 52.5235 38.382C55.0823 38.382 57.1758 40.4755 57.1758 43.0343C57.1758 45.5931 55.0823 47.6867 52.5235 47.6867Z" fill="currentColor"/>
</svg>
