<svg width="209" height="207" viewBox="0 0 209 207" fill="none" xmlns="http://www.w3.org/2000/svg">
<path d="M203.869 64.4493C203.229 62.8503 202.55 61.2666 201.832 59.6999C200.409 59.3236 199.049 59.9173 198.507 61.2296C197.888 62.7279 198.645 64.4139 200.273 65.1635C201.663 65.8035 203.095 65.4878 203.869 64.4493Z" fill="#F58220"/>
<path d="M67.501 5.02536C69.206 4.36826 70.9278 3.75503 72.6647 3.18639C72.6861 3.59207 72.619 4.00581 72.4536 4.40615C71.8346 5.90441 70.1492 6.46593 68.521 5.71635C68.1279 5.53534 67.7855 5.29974 67.501 5.02536Z" fill="#F58220"/>
<path d="M26.4432 33.4377C27.3133 32.4589 28.1998 31.4983 29.1021 30.5564C29.5685 30.5565 30.0596 30.6634 30.5457 30.8872C32.1739 31.6369 32.9308 33.3231 32.3118 34.8217C31.6928 36.3202 30.0074 36.8818 28.3792 36.1321C27.2227 35.5996 26.5448 34.5 26.4432 33.4377Z" fill="#F58220"/>
<path d="M0 95.4982C0.109958 94.1024 0.248035 92.7059 0.414527 91.3097C1.26123 90.7873 2.40663 90.7295 3.34894 91.1633C4.77359 91.8192 5.734 93.5987 5.11501 95.0969C4.49602 96.5951 2.81065 97.1566 1.18247 96.4071C0.70413 96.1868 0.30767 95.8697 0 95.4982Z" fill="#F58220"/>
<path d="M8.46497 146C7.76959 144.398 7.11378 142.779 6.49814 141.144C6.70368 141.198 6.91058 141.272 7.11657 141.367C8.74475 142.116 9.50164 143.802 8.88265 145.301C8.77417 145.563 8.63292 145.797 8.46497 146Z" fill="#F58220"/>
<path d="M140.85 203.654C139.143 204.257 137.42 204.817 135.684 205.333C134.815 204.428 134.527 203.115 134.936 202.124C135.555 200.626 137.24 200.064 138.869 200.814C140.107 201.384 140.841 202.495 140.85 203.654Z" fill="#F58220"/>
<path d="M8.51756 72.3048C9.13655 70.8064 10.8219 70.2449 12.4501 70.9945C14.0783 71.7441 14.7578 73.6174 14.2162 74.9284C13.5972 76.4268 11.9118 76.9884 10.2836 76.2387C8.65546 75.4891 7.89858 73.8031 8.51756 72.3048Z" fill="#F58220"/>
<path d="M166.153 140.345C164.525 139.595 162.839 140.157 162.22 141.655C161.601 143.153 162.358 144.839 163.986 145.589C165.615 146.339 167.3 145.777 167.919 144.279C168.461 142.968 167.781 141.094 166.153 140.345Z" fill="#F58220"/>
<path d="M188.046 150.224C186.418 149.474 184.732 150.036 184.113 151.534C183.494 153.032 184.251 154.718 185.88 155.467C187.508 156.217 189.193 155.655 189.812 154.157C190.354 152.846 189.674 150.973 188.046 150.224Z" fill="#F58220"/>
<path d="M144.291 130.481C142.663 129.731 140.978 130.293 140.359 131.791C139.74 133.289 140.497 134.975 142.125 135.725C143.753 136.475 145.439 135.913 146.058 134.415C146.677 132.916 145.92 131.23 144.291 130.481Z" fill="#F58220"/>
<path d="M180.58 50.0552C178.952 49.3056 177.267 49.8671 176.648 51.3654C176.029 52.8637 176.785 54.5495 178.414 55.2991C180.042 56.0487 181.727 55.4872 182.346 53.9889C182.965 52.4907 182.208 50.8048 180.58 50.0552Z" fill="#F58220"/>
<path d="M118.302 121.839C118.921 120.341 120.606 119.779 122.235 120.529C123.863 121.278 124.62 122.964 124.001 124.463C123.382 125.961 121.696 126.523 120.068 125.773C118.44 125.023 117.683 123.337 118.302 121.839Z" fill="#F58220"/>
<path d="M85.9455 200.955C84.3173 200.205 82.6319 200.767 82.0129 202.265C81.3939 203.763 82.1508 205.449 83.779 206.199C85.4072 206.948 87.0926 206.387 87.7115 204.888C88.3305 203.39 87.5736 201.704 85.9455 200.955Z" fill="#F58220"/>
<path d="M154.589 41.4136C155.208 39.9153 156.894 39.3537 158.522 40.1033C160.15 40.8529 160.907 42.5389 160.288 44.0372C159.669 45.5355 157.984 46.097 156.356 45.3474C154.727 44.5978 153.97 42.9119 154.589 41.4136Z" fill="#F58220"/>
<path d="M100.371 110.665C98.7433 109.915 97.0579 110.476 96.4389 111.975C95.8199 113.473 96.5768 115.159 98.205 115.908C99.8332 116.658 101.519 116.097 102.138 114.598C102.757 113.1 102 111.414 100.371 110.665Z" fill="#F58220"/>
<path d="M60.151 192.401C60.77 190.903 62.4553 190.342 64.0835 191.091C65.7117 191.841 66.4686 193.527 65.8496 195.025C65.2306 196.523 63.5452 197.085 61.917 196.335C60.2889 195.585 59.532 193.9 60.151 192.401Z" fill="#F58220"/>
<path d="M136.659 30.2387C135.031 29.489 133.346 30.0506 132.727 31.549C132.108 33.0474 132.865 34.7335 134.493 35.4831C136.121 36.2327 137.807 35.6712 138.426 34.1727C139.044 32.6743 138.288 30.9883 136.659 30.2387Z" fill="#F58220"/>
<path d="M74.3845 102.024C75.0035 100.526 76.6889 99.964 78.3171 100.714C79.9453 101.463 80.7022 103.149 80.0832 104.647C79.4642 106.145 77.7788 106.707 76.1506 105.957C74.5224 105.208 73.7655 103.522 74.3845 102.024Z" fill="#F58220"/>
<path d="M42.0291 181.139C40.4009 180.389 38.7155 180.951 38.0966 182.449C37.4776 183.947 38.2345 185.633 39.8627 186.383C41.4909 187.133 43.1763 186.571 43.7952 185.073C44.4142 183.574 43.6573 181.888 42.0291 181.139Z" fill="#F58220"/>
<path d="M110.673 21.5974C111.292 20.099 112.977 19.5374 114.606 20.287C116.234 21.0367 116.991 22.7228 116.372 24.2212C115.753 25.7197 114.067 26.2813 112.439 25.5316C110.811 24.782 110.054 23.0959 110.673 21.5974Z" fill="#F58220"/>
<path d="M56.4551 90.8498C54.8269 90.1003 53.1416 90.6618 52.5226 92.16C51.9036 93.6582 52.6605 95.344 54.2887 96.0936C55.9168 96.8431 57.6022 96.2816 58.2212 94.7834C58.8402 93.2852 58.0833 91.5994 56.4551 90.8498Z" fill="#F58220"/>
<path d="M92.7418 10.4241C91.1137 9.67452 89.4283 10.236 88.8093 11.7343C88.1903 13.2325 88.9472 14.9184 90.5754 15.668C92.2035 16.4176 93.8889 15.8561 94.5079 14.3578C95.1269 12.8595 94.37 11.1737 92.7418 10.4241Z" fill="#F58220"/>
<path d="M30.467 82.2087C31.086 80.7104 32.7713 80.1489 34.3995 80.8984C36.0277 81.648 36.7846 83.3339 36.1656 84.8322C35.5466 86.3304 33.8612 86.8919 32.2331 86.1424C30.6049 85.3928 29.848 83.7069 30.467 82.2087Z" fill="#F58220"/>
<path d="M175.157 120.387C173.528 119.638 171.843 120.199 171.224 121.698C170.682 123.009 171.362 124.882 172.99 125.632C174.618 126.381 176.304 125.82 176.923 124.321C177.542 122.823 176.785 121.137 175.157 120.387Z" fill="#F58220"/>
<path d="M193.118 131.577C193.737 130.079 195.423 129.517 197.051 130.267C198.679 131.016 199.436 132.702 198.817 134.201C198.198 135.699 196.513 136.26 194.885 135.511C193.256 134.761 192.577 132.888 193.118 131.577Z" fill="#F58220"/>
<path d="M21.4545 51.0376C19.8263 50.288 18.1409 50.8496 17.5219 52.3479C16.9803 53.6589 17.6598 55.5321 19.288 56.2817C20.9162 57.0313 22.6016 56.4698 23.2206 54.9715C23.8396 53.4732 23.0827 51.7872 21.4545 51.0376Z" fill="#F58220"/>
<path d="M149.363 111.834C149.982 110.336 151.667 109.774 153.295 110.524C154.923 111.273 155.68 112.959 155.061 114.458C154.442 115.956 152.757 116.518 151.129 115.768C149.578 114.831 148.821 113.145 149.363 111.834Z" fill="#F58220"/>
<path d="M117.008 190.95C115.38 190.2 113.694 190.762 113.075 192.26C112.534 193.571 113.291 195.257 114.841 196.194C116.47 196.943 118.155 196.382 118.774 194.884C119.393 193.385 118.636 191.7 117.008 190.95Z" fill="#F58220"/>
<path d="M131.239 100.573C129.611 99.8232 127.925 100.385 127.306 101.883C126.765 103.194 127.444 105.067 129.073 105.816C130.701 106.566 132.386 106.005 133.005 104.506C133.624 103.008 132.867 101.322 131.239 100.573Z" fill="#F58220"/>
<path d="M91.0185 182.308C91.6375 180.81 93.3229 180.248 94.9511 180.998C96.5793 181.747 97.3362 183.433 96.7172 184.932C96.0982 186.43 94.4128 186.991 92.7846 186.242C91.1564 185.492 90.4769 183.619 91.0185 182.308Z" fill="#F58220"/>
<path d="M167.526 20.1467C165.898 19.3972 164.213 19.9587 163.594 21.4569C163.052 22.7678 163.732 24.6409 165.36 25.3905C166.988 26.14 168.673 25.5785 169.292 24.0803C169.911 22.5821 169.155 20.8963 167.526 20.1467Z" fill="#F58220"/>
<path d="M105.444 92.0181C106.063 90.5199 107.748 89.9584 109.376 90.708C111.005 91.4575 111.761 93.1434 111.143 94.6416C110.524 96.1398 108.838 96.7013 107.21 95.9517C105.659 95.0149 104.902 93.3291 105.444 92.0181Z" fill="#F58220"/>
<path d="M73.0891 171.134C71.4609 170.384 69.7756 170.946 69.1566 172.444C68.6149 173.755 69.3718 175.441 70.9226 176.378C72.5508 177.127 74.2362 176.566 74.8552 175.068C75.4742 173.569 74.7173 171.884 73.0891 171.134Z" fill="#F58220"/>
<path d="M141.732 11.5922C142.351 10.0938 144.037 9.53223 145.665 10.2819C147.293 11.0315 148.05 12.7175 147.431 14.216C146.812 15.7144 145.127 16.2759 143.499 15.5263C141.948 14.5894 141.191 12.9033 141.732 11.5922Z" fill="#F58220"/>
<path d="M87.3221 80.7568C85.6939 80.0072 84.0085 80.5687 83.3895 82.0669C82.8479 83.3778 83.6048 85.0636 85.1556 86.0004C86.7838 86.7499 88.4692 86.1884 89.0882 84.6902C89.7072 83.1921 88.9503 81.5063 87.3221 80.7568Z" fill="#F58220"/>
<path d="M47.1009 162.492C47.7199 160.994 49.4053 160.432 51.0335 161.182C52.6617 161.932 53.4186 163.618 52.7996 165.116C52.1806 166.615 50.4953 167.176 48.8671 166.427C47.3162 165.49 46.5593 163.803 47.1009 162.492Z" fill="#F58220"/>
<path d="M123.61 0.330783C121.982 -0.418901 120.296 0.142706 119.677 1.64121C119.136 2.9524 119.893 4.63854 121.444 5.57553C123.072 6.32522 124.757 5.76361 125.376 4.26511C125.995 2.76661 125.238 1.08047 123.61 0.330783Z" fill="#F58220"/>
<path d="M61.5257 72.2029C62.1447 70.7046 63.8301 70.143 65.4583 70.8927C67.0864 71.6423 67.8433 73.3283 67.2243 74.8266C66.6054 76.325 64.92 76.8865 63.2918 76.1369C61.6636 75.3873 60.9841 73.514 61.5257 72.2029Z" fill="#F58220"/>
<path d="M29.1715 151.318C27.5434 150.569 25.858 151.13 25.239 152.628C24.6974 153.939 25.3769 155.812 27.0051 156.562C28.6333 157.311 30.3186 156.75 30.9376 155.252C31.5566 153.754 30.7997 152.068 29.1715 151.318Z" fill="#F58220"/>
<path d="M43.4033 60.9419C41.7751 60.1923 40.0897 60.7538 39.4707 62.252C38.9291 63.563 39.6086 65.4361 41.2368 66.1856C42.865 66.9352 44.5504 66.3737 45.1694 64.8755C45.7883 63.3773 45.0315 61.6914 43.4033 60.9419Z" fill="#F58220"/>
<path d="M180.315 101.549C180.934 100.05 182.62 99.4887 184.248 100.238C185.876 100.988 186.633 102.674 186.014 104.172C185.395 105.67 183.71 106.232 182.081 105.482C180.453 104.733 179.774 102.859 180.315 101.549Z" fill="#F58220"/>
<path d="M206.142 110.116C204.514 109.367 202.829 109.928 202.21 111.427C201.668 112.738 202.348 114.611 203.976 115.361C205.604 116.111 207.289 115.549 207.908 114.051C208.527 112.552 207.77 110.866 206.142 110.116Z" fill="#F58220"/>
<path d="M147.961 180.665C146.333 179.915 144.648 180.476 144.029 181.975C143.487 183.286 144.166 185.159 145.795 185.908C147.423 186.658 149.108 186.096 149.727 184.598C150.346 183.1 149.589 181.414 147.961 180.665Z" fill="#F58220"/>
<path d="M160.22 95.6185C158.646 94.894 157.856 93.1329 158.454 91.6849C159.052 90.2369 160.813 89.6503 162.386 90.3747C163.96 91.0992 164.751 92.8603 164.153 94.3083C163.554 95.7564 161.794 96.3429 160.22 95.6185Z" fill="#F58220"/>
<path d="M122.167 172.111C121.568 173.559 122.359 175.32 123.933 176.045C125.506 176.769 127.267 176.182 127.865 174.734C128.463 173.286 127.673 171.525 126.099 170.801C124.525 170.076 122.765 170.663 122.167 172.111Z" fill="#F58220"/>
<path d="M136.398 81.7324C135.799 83.1804 136.59 84.9415 138.164 85.6659C139.737 86.3903 141.498 85.8038 142.096 84.3558C142.695 82.9078 141.904 81.1467 140.33 80.4223C138.757 79.6979 136.996 80.2844 136.398 81.7324Z" fill="#F58220"/>
<path d="M101.876 166.093C100.303 165.368 99.5121 163.607 100.11 162.159C100.709 160.711 102.469 160.124 104.043 160.849C105.617 161.573 106.407 163.334 105.809 164.782C105.211 166.23 103.45 166.817 101.876 166.093Z" fill="#F58220"/>
<path d="M116.301 75.8023C114.728 75.0778 113.937 73.3166 114.535 71.8686C115.133 70.4205 116.894 69.8339 118.468 70.5584C120.041 71.2828 120.832 73.044 120.234 74.4921C119.635 75.9402 117.875 76.5267 116.301 75.8023Z" fill="#F58220"/>
<path d="M78.2471 152.294C77.6489 153.742 78.4396 155.504 80.0132 156.228C81.5869 156.953 83.3475 156.366 83.9458 154.918C84.544 153.47 83.7533 151.708 82.1797 150.984C80.606 150.259 78.8454 150.846 78.2471 152.294Z" fill="#F58220"/>
<path d="M92.4814 61.9176C93.1003 60.4193 94.7857 59.8578 96.4139 60.6074C98.0421 61.357 98.799 63.0428 98.18 64.541C97.561 66.0392 95.8756 66.6007 94.2474 65.8511C92.6966 64.9143 91.9397 63.2285 92.4814 61.9176Z" fill="#F58220"/>
<path d="M60.1247 141.032C58.4965 140.283 56.8111 140.844 56.1922 142.343C55.6505 143.654 56.4074 145.34 57.9582 146.277C59.5864 147.026 61.2718 146.465 61.8908 144.966C62.5098 143.468 61.7529 141.782 60.1247 141.032Z" fill="#F58220"/>
<path d="M74.5507 50.7427C72.9225 49.9931 71.2371 50.5546 70.6181 52.0528C70.0765 53.3637 70.756 55.2368 72.3842 55.9864C74.0124 56.736 75.6978 56.1745 76.3168 54.6763C76.9358 53.178 76.1789 51.4922 74.5507 50.7427Z" fill="#F58220"/>
<path d="M34.3302 132.479C34.9492 130.981 36.6346 130.419 38.2627 131.169C39.8909 131.918 40.6478 133.604 40.0288 135.103C39.4098 136.601 37.7245 137.162 36.0963 136.413C34.4681 135.663 33.7886 133.79 34.3302 132.479Z" fill="#F58220"/>
<path d="M48.5632 42.1019C49.1822 40.6037 50.8675 40.0422 52.4957 40.7917C54.1239 41.5413 54.8808 43.2271 54.2618 44.7253C53.6428 46.2235 51.9574 46.785 50.3292 46.0355C48.7011 45.2859 48.0215 43.4128 48.5632 42.1019Z" fill="#F58220"/>
<path d="M16.2078 121.218C14.5796 120.468 12.8942 121.03 12.2752 122.528C11.7336 123.839 12.4131 125.712 14.0413 126.461C15.6695 127.211 17.3548 126.65 17.9738 125.151C18.5928 123.653 17.8359 121.967 16.2078 121.218Z" fill="#F58220"/>
<path d="M193.341 80.0884C191.916 79.4325 190.027 79.9003 189.408 81.3985C188.867 82.7094 189.546 84.5825 191.174 85.3321C192.803 86.0817 194.488 85.5202 195.107 84.0219C195.726 82.5237 194.766 80.7442 193.341 80.0884Z" fill="#F58220"/>
<path d="M153.12 161.824C153.739 160.326 155.628 159.858 157.052 160.514C158.477 161.17 159.437 162.949 158.818 164.448C158.199 165.946 156.514 166.508 154.886 165.758C153.258 165.008 152.578 163.135 153.12 161.824Z" fill="#F58220"/>
<path d="M178.945 170.392C177.521 169.736 175.632 170.204 175.013 171.702C174.471 173.013 175.151 174.887 176.779 175.636C178.407 176.386 180.093 175.824 180.712 174.326C181.331 172.828 180.37 171.048 178.945 170.392Z" fill="#F58220"/>
<path d="M167.546 71.5347C168.165 70.0365 169.851 69.475 171.479 70.2246C173.107 70.9741 173.864 72.66 173.245 74.1582C172.626 75.6564 170.941 76.2179 169.312 75.4683C167.684 74.7188 167.005 72.8457 167.546 71.5347Z" fill="#F58220"/>
<path d="M135.19 150.65C133.562 149.901 131.877 150.462 131.258 151.96C130.716 153.271 131.396 155.144 133.024 155.894C134.652 156.643 136.337 156.082 136.956 154.584C137.575 153.086 136.818 151.4 135.19 150.65Z" fill="#F58220"/>
<path d="M149.422 60.2723C147.794 59.5227 146.108 60.0842 145.49 61.5825C144.948 62.8936 145.627 64.7668 147.256 65.5164C148.884 66.266 150.569 65.7044 151.188 64.2061C151.807 62.7078 151.05 61.0219 149.422 60.2723Z" fill="#F58220"/>
<path d="M109.202 142.009C109.821 140.511 111.506 139.949 113.134 140.699C114.762 141.448 115.519 143.134 114.9 144.632C114.281 146.131 112.596 146.692 110.968 145.942C109.339 145.193 108.66 143.32 109.202 142.009Z" fill="#F58220"/>
<path d="M123.628 51.7183C124.246 50.22 125.932 49.6584 127.56 50.4081C129.188 51.1577 129.945 52.8437 129.326 54.342C128.707 55.8404 127.022 56.4019 125.394 55.6523C123.765 54.9027 123.086 53.0294 123.628 51.7183Z" fill="#F58220"/>
<path d="M91.2721 130.833C89.6439 130.084 87.9585 130.645 87.3396 132.144C86.798 133.455 87.4775 135.328 89.1057 136.078C90.7339 136.827 92.4193 136.266 93.0382 134.767C93.6572 133.269 92.9003 131.583 91.2721 130.833Z" fill="#F58220"/>
<path d="M105.504 40.4573C103.876 39.7077 102.191 40.2692 101.572 41.7674C101.03 43.0784 101.71 44.9515 103.338 45.701C104.966 46.4506 106.652 45.8891 107.271 44.3909C107.89 42.8926 107.133 41.2068 105.504 40.4573Z" fill="#F58220"/>
<path d="M65.2846 122.193C65.9036 120.694 67.589 120.133 69.2171 120.882C70.8453 121.632 71.6022 123.318 70.9833 124.816C70.3643 126.315 68.6789 126.876 67.0507 126.127C65.4225 125.377 64.743 123.504 65.2846 122.193Z" fill="#F58220"/>
<path d="M79.7099 31.9027C80.3289 30.4042 82.0143 29.8426 83.6425 30.5922C85.2707 31.3419 86.0276 33.0281 85.4086 34.5266C84.7896 36.0251 83.1043 36.5867 81.4761 35.837C79.8479 35.0873 79.1683 33.2139 79.7099 31.9027Z" fill="#F58220"/>
<path d="M47.3546 111.018C45.7264 110.269 44.041 110.83 43.422 112.328C42.8804 113.639 43.5599 115.512 45.1881 116.262C46.8163 117.012 48.5016 116.45 49.1206 114.952C49.7396 113.454 48.9827 111.768 47.3546 111.018Z" fill="#F58220"/>
<path d="M61.5869 20.6413C59.9587 19.8916 58.2733 20.4532 57.6544 21.9517C57.1127 23.2628 57.7923 25.1362 59.4205 25.8859C61.0487 26.6355 62.734 26.0739 63.353 24.5755C63.972 23.077 63.2151 21.3909 61.5869 20.6413Z" fill="#F58220"/>
<path d="M21.3664 102.377C21.9854 100.879 23.6708 100.318 25.299 101.067C26.9271 101.817 27.684 103.502 27.065 105.001C26.446 106.499 24.7607 107.06 23.1325 106.311C21.5043 105.561 20.8248 103.688 21.3664 102.377Z" fill="#F58220"/>
</svg>
