<svg id="icon" width="40" height="40" viewBox="0 0 40 40" fill="none" xmlns="http://www.w3.org/2000/svg">
<path d="M35.3031 17.9527C35.0112 17.7196 34.6706 17.5552 34.3065 17.4718C33.9425 17.3883 33.5642 17.3879 33.2 17.4706C32.6547 17.5938 32.0888 17.5934 31.5437 17.4696C30.9986 17.3458 30.488 17.1016 30.0495 16.755C29.6109 16.4084 29.2554 15.9681 29.009 15.4663C28.7626 14.9645 28.6315 14.414 28.6253 13.855C28.6223 13.1981 28.36 12.569 27.8955 12.1044C27.431 11.6399 26.8019 11.3776 26.145 11.3746C25.586 11.3684 25.0354 11.2374 24.5336 10.991C24.0318 10.7446 23.5915 10.3891 23.2448 9.95051C22.8982 9.51194 22.654 9.00138 22.5302 8.45624C22.4064 7.91109 22.406 7.34516 22.5292 6.79986C22.611 6.43471 22.6099 6.05586 22.5259 5.69121C22.4419 5.32655 22.2772 4.98538 22.0439 4.69282C21.8106 4.40025 21.5146 4.16375 21.1778 4.00072C20.841 3.83769 20.4718 3.75229 20.0976 3.7508L19.9966 3.75049C16.7785 3.75108 13.633 4.70715 10.9589 6.49752C8.28484 8.28789 6.20256 10.8319 4.97605 13.8071C3.74954 16.7823 3.43402 20.0547 4.06951 23.2094C4.70499 26.3641 6.26285 29.2591 8.54561 31.5274C10.8284 33.7957 13.7332 35.3352 16.8919 35.9506C20.0506 36.566 23.3209 36.2297 26.2882 34.9843C29.2556 33.7389 31.7863 31.6405 33.5597 28.9551C35.333 26.2697 36.2691 23.1182 36.2492 19.9002C36.2479 19.5254 36.1621 19.1557 35.9984 18.8185C35.8346 18.4814 35.597 18.1854 35.3033 17.9527H35.3031ZM29.7141 29.7313C24.427 35.0091 15.7703 35.0671 10.4172 29.8603C8.45481 27.9536 7.10601 25.5047 6.54338 22.8271C5.98075 20.1494 6.22989 17.3648 7.25891 14.8295C8.28793 12.2942 10.05 10.1237 12.3197 8.59558C14.5894 7.0675 17.2634 6.25141 19.9995 6.25174C20.0297 6.25174 20.0598 6.25174 20.09 6.25205C19.8859 7.16179 19.8876 8.10563 20.095 9.01463C20.3023 9.92362 20.7101 10.7748 21.2885 11.5061C21.867 12.2373 22.6014 12.8301 23.4382 13.2412C24.2751 13.6522 25.1932 13.8712 26.1255 13.8821C26.1357 14.8137 26.3541 15.7312 26.7646 16.5675C27.1752 17.4039 27.7676 18.1378 28.4984 18.7157C29.2292 19.2936 30.0799 19.7007 30.9884 19.9074C31.8969 20.1141 32.84 20.115 33.7489 19.9102C33.7492 19.912 33.7493 19.9138 33.7492 19.9156C33.766 21.7383 33.4176 23.5459 32.7245 25.2317C32.0315 26.9175 31.0078 28.4475 29.7139 29.7313H29.7141ZM25.7008 25.5491C25.963 25.8113 26.1416 26.1454 26.214 26.5091C26.2863 26.8728 26.2492 27.2498 26.1073 27.5925C25.9654 27.9351 25.725 28.2279 25.4167 28.4339C25.1084 28.64 24.7458 28.75 24.375 28.75C24.0041 28.75 23.6416 28.64 23.3333 28.4339C23.0249 28.2279 22.7846 27.9351 22.6427 27.5925C22.5008 27.2498 22.4637 26.8728 22.536 26.5091C22.6084 26.1454 22.787 25.8113 23.0492 25.5491C23.4008 25.1975 23.8777 25 24.375 25C24.8723 25 25.3491 25.1975 25.7008 25.5491ZM15.7008 24.2991C15.963 24.5613 16.1416 24.8954 16.214 25.2591C16.2863 25.6228 16.2492 25.9998 16.1073 26.3425C15.9654 26.6851 15.725 26.9779 15.4167 27.1839C15.1084 27.39 14.7458 27.5 14.375 27.5C14.0041 27.5 13.6416 27.39 13.3333 27.1839C13.0249 26.9779 12.7846 26.6851 12.6427 26.3425C12.5008 25.9998 12.4637 25.6228 12.536 25.2591C12.6084 24.8954 12.787 24.5613 13.0492 24.2991C13.4008 23.9475 13.8777 23.75 14.375 23.75C14.8723 23.75 15.3491 23.9475 15.7008 24.2991V24.2991ZM11.7992 18.2006C11.537 17.9384 11.3584 17.6043 11.286 17.2406C11.2137 16.8769 11.2508 16.4999 11.3927 16.1573C11.5346 15.8147 11.7749 15.5218 12.0833 15.3158C12.3916 15.1097 12.7541 14.9998 13.125 14.9998C13.4958 14.9998 13.8584 15.1097 14.1667 15.3158C14.475 15.5218 14.7154 15.8147 14.8573 16.1573C14.9992 16.4999 15.0363 16.8769 14.964 17.2406C14.8916 17.6043 14.713 17.9384 14.4508 18.2006C14.0991 18.5522 13.6222 18.7498 13.125 18.7498C12.6277 18.7498 12.1508 18.5522 11.7992 18.2006V18.2006ZM22.5758 20.7006C22.3136 20.9629 21.9795 21.1415 21.6157 21.2138C21.252 21.2862 20.875 21.2491 20.5324 21.1071C20.1898 20.9652 19.8969 20.7249 19.6909 20.4166C19.4849 20.1082 19.3749 19.7457 19.3749 19.3749C19.3749 19.004 19.4849 18.6415 19.6909 18.3332C19.8969 18.0248 20.1898 17.7845 20.5324 17.6426C20.875 17.5007 21.252 17.4635 21.6157 17.5359C21.9795 17.6083 22.3136 17.7868 22.5758 18.0491C22.9274 18.4007 23.1249 18.8776 23.1249 19.3749C23.1249 19.8721 22.9274 20.349 22.5758 20.7006V20.7006Z" fill="currentColor"/>
</svg>
