<svg width="40" height="40" viewBox="0 0 40 40" fill="none" xmlns="http://www.w3.org/2000/svg">
<circle cx="20" cy="20" r="19" stroke="black" stroke-width="2"/>
<g clip-path="url(#clip0_3_26843)">
<path d="M28.3337 19.2341V20.0008C28.3326 21.7978 27.7507 23.5463 26.6748 24.9856C25.5988 26.4249 24.0864 27.4778 22.3631 27.9873C20.6399 28.4969 18.798 28.4357 17.1124 27.8129C15.4267 27.1902 13.9875 26.0392 13.0095 24.5317C12.0314 23.0241 11.5668 21.2408 11.6851 19.4477C11.8033 17.6546 12.498 15.9477 13.6656 14.5817C14.8331 13.2156 16.411 12.2636 18.1638 11.8676C19.9167 11.4715 21.7505 11.6527 23.392 12.3841" stroke="black" stroke-width="2" stroke-linecap="round" stroke-linejoin="round"/>
<path d="M28.3333 13.3337L20 21.6754L17.5 19.1754" stroke="black" stroke-width="2" stroke-linecap="round" stroke-linejoin="round"/>
</g>
<defs>
<clipPath id="clip0_3_26843">
<rect width="20" height="20" fill="white" transform="translate(10 10.0007)"/>
</clipPath>
</defs>
</svg>
