<svg width="72" height="24" viewBox="0 0 72 24" fill="none" xmlns="http://www.w3.org/2000/svg">
<path d="M5.10001 23.5H4.50001C4.10001 23.5 3.80001 23.5 3.40001 23.4C3.10001 23.3 2.70001 23.2 2.40001 23.1C2.10001 22.9 1.80001 22.7 1.60001 22.5C1.40001 22.2 1.20001 22 1.00001 21.7C0.800006 21.4 0.700006 21 0.700006 20.7C0.600006 20.3 0.600006 19.9 0.600006 19.6C0.600006 19.5 0.600006 19.1 0.600006 19.1V5.10001C0.600006 5.10001 0.600006 4.70001 0.600006 4.60001C0.600006 4.20001 0.600006 3.80001 0.700006 3.50001C0.800006 3.20001 0.900006 2.80001 1.00001 2.50001C1.20001 2.20001 1.40001 1.90001 1.60001 1.70001C1.80001 1.30001 2.10001 1.10001 2.40001 1.00001C2.70001 0.800006 3.10001 0.700006 3.40001 0.700006C3.80001 0.600006 4.10001 0.600006 4.50001 0.600006H67.2C67.6 0.600006 67.9 0.600006 68.3 0.700006C68.6 0.800006 69 0.900006 69.3 1.00001C70.2 1.50001 70.9 2.40001 71.1 3.40001C71.2 3.80001 71.2 4.20001 71.2 4.50001V18.9C71.2 19.1 71.2 19.3 71.2 19.5C71.2 19.9 71.2 20.2 71.1 20.6C71 20.9 70.9 21.3 70.8 21.6C70.6 21.9 70.4 22.2 70.2 22.4C70 22.6 69.7 22.9 69.4 23C69.1 23.2 68.7 23.3 68.4 23.3C68 23.4 67.7 23.4 67.3 23.4L5.10001 23.5Z" fill="black"/>
<path d="M14.9 12.2C14.9 11.2 15.5 10.2 16.3 9.70001C15.7 8.90001 14.9 8.40001 13.9 8.40001C12.9 8.30001 11.9 9.00001 11.4 9.00001C10.9 9.00001 10.1 8.40001 9.2 8.40001C8.1 8.40001 7.1 9.10001 6.5 10C5.3 12 6.2 15 7.3 16.6C7.9 17.4 8.5 18.3 9.3 18.2C10.1 18.1 10.4 17.7 11.5 17.7C12.6 17.7 12.8 18.2 13.6 18.2C14.4 18.2 15.1 17.4 15.6 16.6C16 16 16.3 15.4 16.5 14.7C15.5 14.4 14.9 13.3 14.9 12.2Z" fill="white"/>
<path d="M13.2 7.30001C13.7 6.70001 13.9 6.00001 13.9 5.20001C13.2 5.30001 12.5 5.60001 12 6.20001C11.5 6.80001 11.3 7.50001 11.3 8.20001C12 8.20001 12.7 7.90001 13.2 7.30001Z" fill="white"/>
<path d="M25.4 16.3H22.6L21.9 18.3H20.7L23.4 10.9H24.6L27.3 18.3H26L25.4 16.3ZM22.8 15.4H25L24 12.1L22.8 15.4Z" fill="white"/>
<path d="M33.1 15.6C33.1 17.3 32.2 18.4 30.8 18.4C30.1 18.4 29.4 18.1 29.1 17.4V20.1H28V12.9H29V13.8C29.4 13.2 30 12.8 30.7 12.8C32.2 12.8 33.1 13.9 33.1 15.6ZM31.9 15.6C31.9 14.5 31.3 13.8 30.5 13.8C29.7 13.8 29.1 14.5 29.1 15.6C29.1 16.7 29.7 17.4 30.5 17.4C31.3 17.4 31.9 16.7 31.9 15.6Z" fill="white"/>
<path d="M39 15.6C39 17.3 38.1 18.4 36.7 18.4C36 18.4 35.3 18.1 35 17.4V20.1H33.9V12.9H35V13.8C35.3 13.2 36 12.8 36.7 12.8C38.1 12.8 39 13.9 39 15.6ZM37.9 15.6C37.9 14.5 37.3 13.8 36.5 13.8C35.7 13.8 35.1 14.5 35.1 15.6C35.1 16.7 35.7 17.4 36.5 17.4C37.3 17.4 37.9 16.7 37.9 15.6Z" fill="white"/>
<path d="M43 16.2C43.1 16.9 43.8 17.4 44.8 17.4C45.8 17.4 46.4 17 46.4 16.2C46.4 15.4 46 15.4 45 15.1L44 14.9C42.6 14.6 42 13.9 42 12.9C42 11.6 43.1 10.7 44.7 10.7C46.3 10.7 47.4 11.6 47.4 12.9H46.3C46.2 12.2 45.6 11.7 44.7 11.7C43.8 11.7 43.2 12.2 43.2 12.8C43.2 13.4 43.6 13.6 44.5 13.9L45.3 14.1C46.8 14.5 47.5 15.1 47.5 16.2C47.5 17.6 46.4 18.5 44.6 18.5C42.8 18.5 41.8 17.6 41.8 16.3L43 16.2Z" fill="white"/>
<path d="M50 11.6V12.9H51V13.8H50V16.8C50 17.3 50.2 17.5 50.7 17.5H51V18.4C50.8 18.4 50.6 18.4 50.4 18.4C49.3 18.4 48.9 18 48.9 16.9V13.8H48.1V12.9H48.9V11.6H50Z" fill="white"/>
<path d="M51.6 15.6C51.5 14.2 52.6 13 54 12.9C55.4 12.8 56.6 13.9 56.7 15.3C56.7 15.4 56.7 15.5 56.7 15.6C56.8 17 55.7 18.2 54.3 18.3C52.9 18.4 51.7 17.3 51.6 15.9C51.6 15.8 51.6 15.7 51.6 15.6ZM55.6 15.6C55.6 14.4 55.1 13.7 54.2 13.7C53.3 13.7 52.8 14.4 52.8 15.6C52.8 16.8 53.3 17.5 54.2 17.5C55.1 17.5 55.6 16.8 55.6 15.6Z" fill="white"/>
<path d="M57.7 12.9H58.8V13.8C58.9 13.2 59.5 12.8 60.1 12.8C60.2 12.8 60.4 12.8 60.5 12.8V13.8C60.3 13.8 60.2 13.7 60 13.7C59.4 13.7 58.9 14.1 58.8 14.7C58.8 14.8 58.8 14.8 58.8 14.9V18.1H57.7V12.9Z" fill="white"/>
<path d="M65.6 16.7C65.3 17.8 64.3 18.5 63.3 18.4C61.9 18.5 60.8 17.4 60.7 16C60.7 15.9 60.7 15.7 60.7 15.6C60.5 14.2 61.5 13 62.9 12.8C63 12.8 63.1 12.8 63.2 12.8C64.5 12.8 65.6 13.8 65.7 15.1C65.7 15.2 65.7 15.3 65.7 15.5V15.9H61.9V16C61.8 16.8 62.4 17.5 63.2 17.5H63.4C63.9 17.6 64.5 17.2 64.6 16.7H65.6ZM61.8 15.1H64.5C64.5 14.4 64 13.8 63.3 13.7H63.2C62.5 13.7 61.8 14.3 61.8 15.1Z" fill="white"/>
<path d="M21.4 8.8V5.2H22.8C23.5 5.2 23.9 5.5 23.9 6.1C23.9 6.5 23.6 6.8 23.3 6.9C23.8 6.9 24.1 7.3 24.1 7.8C24.1 8.4 23.6 8.8 22.9 8.8H21.4ZM22 6.8H22.6C23.1 6.8 23.4 6.6 23.4 6.3C23.4 6 23.2 5.8 22.8 5.8H22V6.8ZM22.8 8.3C23.3 8.3 23.6 8.1 23.6 7.7C23.6 7.3 23.3 7.1 22.8 7.1H22V8.3H22.8Z" fill="white"/>
<path d="M24.6 8.10001C24.6 7.60001 25 7.30001 25.6 7.30001H26.3V7.00001C26.3 6.70001 26.1 6.60001 25.8 6.60001C25.5 6.60001 25.3 6.70001 25.2 6.90001H24.7C24.7 6.40001 25.2 6.10001 25.8 6.10001C26.4 6.10001 26.9 6.40001 26.9 7.00001V8.80001H26.4V8.40001C26.2 8.70001 25.9 8.80001 25.6 8.80001C25.1 8.90001 24.7 8.60001 24.6 8.10001ZM26.4 7.80001V7.60001H25.7C25.3 7.60001 25.2 7.80001 25.2 8.00001C25.2 8.20001 25.4 8.40001 25.7 8.40001C26 8.40001 26.3 8.10001 26.4 7.80001Z" fill="white"/>
<path d="M27.7 5.3C27.7 5.1 27.8 5 28 5C28.2 5 28.3 5.2 28.3 5.4C28.3 5.5 28.2 5.7 28 5.7C27.8 5.7 27.7 5.6 27.7 5.3C27.7 5.4 27.7 5.4 27.7 5.3ZM27.8 6.1H28.3V8.8H27.8V6.1Z" fill="white"/>
<path d="M30.1 7.9L29.5 8.9H29L29.9 7.6L29 6.2H29.6L30.2 7.2L30.8 6.2H31.4L30.5 7.5L31.4 8.9H30.8L30.1 7.9Z" fill="white"/>
<path d="M31.8 8.10001C31.8 7.60001 32.2 7.30001 32.8 7.30001H33.5V7.00001C33.5 6.70001 33.3 6.60001 33 6.60001C32.7 6.60001 32.5 6.70001 32.4 6.90001H31.9C31.9 6.40001 32.4 6.10001 33 6.10001C33.6 6.10001 34.1 6.40001 34.1 7.00001V8.80001H33.6V8.40001C33.4 8.70001 33.1 8.80001 32.8 8.80001C32.3 8.90001 31.9 8.60001 31.8 8.10001ZM33.6 7.80001V7.60001H32.9C32.5 7.60001 32.4 7.80001 32.4 8.00001C32.4 8.20001 32.6 8.40001 32.9 8.40001C33.2 8.40001 33.5 8.10001 33.6 7.80001Z" fill="white"/>
<path d="M34.9 6.1H35.4V6.5C35.5 6.2 35.8 6 36.1 6C36.2 6 36.3 6 36.3 6V6.5C36.2 6.5 36.1 6.5 36 6.5C35.6 6.5 35.3 6.7 35.3 7.1V8.7H34.8L34.9 6.1Z" fill="white"/>
<path d="M38.5 6.1H39V6.5C39.1 6.2 39.5 6 39.8 6C40.3 6 40.7 6.3 40.7 6.8C40.7 6.9 40.7 6.9 40.7 7V8.7H40.2V7.2C40.2 6.8 40 6.5 39.6 6.5C39.3 6.5 39 6.7 39 7.1V8.8H38.5V6.1Z" fill="white"/>
<path d="M41.5 8.10001C41.5 7.60001 41.9 7.30001 42.5 7.30001H43.2V7.00001C43.2 6.70001 43 6.60001 42.6 6.60001C42.2 6.60001 42.1 6.70001 42 6.90001H41.5C41.5 6.40001 42 6.10001 42.6 6.10001C43.2 6.10001 43.7 6.40001 43.7 7.00001V8.80001H43.2V8.40001C43 8.70001 42.7 8.80001 42.4 8.80001C42 8.90001 41.6 8.60001 41.5 8.10001ZM43.2 7.80001V7.60001H42.5C42.2 7.60001 42 7.70001 42 8.00001C42 8.20001 42.2 8.40001 42.5 8.40001C42.9 8.40001 43.2 8.10001 43.2 7.80001Z" fill="white"/>
<g clip-path="url(#clip0_104_104)">
<path d="M68.4097 2H3.59032C2.15973 2 1 3.17421 1 4.62267V20.3773C1 21.8258 2.15973 23 3.59032 23H68.4097C69.8403 23 71 21.8258 71 20.3773V4.62267C71 3.17421 69.8403 2 68.4097 2Z" fill="black"/>
<path d="M36.3315 13.4167C35.8955 13.4179 35.4696 13.5497 35.1074 13.7955C34.7452 14.0413 34.463 14.39 34.2961 14.7979C34.1293 15.2057 34.0853 15.6544 34.1698 16.0875C34.2543 16.5206 34.4634 16.9187 34.7708 17.2317C35.0783 17.5447 35.4703 17.7586 35.8976 17.8466C36.3248 17.9345 36.7682 17.8925 37.172 17.7258C37.5757 17.5591 37.9217 17.2753 38.1665 16.9099C38.4112 16.5446 38.5437 16.1141 38.5474 15.6727C38.5514 15.3838 38.4992 15.0969 38.3938 14.8284C38.2883 14.5599 38.1316 14.315 37.9327 14.1078C37.7338 13.9007 37.4965 13.7352 37.2344 13.6209C36.9723 13.5065 36.6905 13.4456 36.4051 13.4416L36.3315 13.4167ZM36.3315 17.0027C36.0677 17.0239 35.8037 16.9655 35.5728 16.8349C35.3418 16.7042 35.1543 16.5072 35.0339 16.2687C34.9135 16.0302 34.8656 15.7609 34.8963 15.4949C34.927 15.2288 35.0349 14.978 35.2064 14.774C35.3778 14.57 35.6051 14.4221 35.8596 14.3489C36.1141 14.2756 36.3843 14.2804 36.6361 14.3626C36.8879 14.4449 37.1099 14.6008 37.2742 14.8107C37.4385 15.0207 37.5376 15.2752 37.5591 15.5422V15.6727C37.5665 15.8433 37.5406 16.0137 37.4829 16.1742C37.4252 16.3347 37.3368 16.482 37.2228 16.6079C37.1088 16.7337 36.9713 16.8356 36.8184 16.9076C36.6655 16.9796 36.5 17.0203 36.3315 17.0275V17.0027ZM31.5007 13.4167C31.0647 13.4179 30.6388 13.5497 30.2766 13.7955C29.9145 14.0413 29.6322 14.39 29.4654 14.7979C29.2985 15.2057 29.2546 15.6544 29.339 16.0875C29.4235 16.5206 29.6326 16.9187 29.9401 17.2317C30.2475 17.5447 30.6396 17.7586 31.0668 17.8466C31.4941 17.9345 31.9375 17.8925 32.3412 17.7258C32.7449 17.5591 33.091 17.2753 33.3357 16.9099C33.5804 16.5446 33.713 16.1141 33.7166 15.6727C33.7232 15.0897 33.5015 14.5277 33.1001 14.1096C32.6987 13.6916 32.1502 13.4514 31.5744 13.4416L31.5007 13.4167ZM31.5007 17.0027C31.237 17.0239 30.973 16.9655 30.742 16.8349C30.5111 16.7042 30.3235 16.5072 30.2031 16.2687C30.0827 16.0302 30.0348 15.7609 30.0655 15.4949C30.0962 15.2288 30.2041 14.978 30.3756 14.774C30.5471 14.57 30.7744 14.4221 31.0289 14.3489C31.2833 14.2756 31.5535 14.2804 31.8053 14.3626C32.0571 14.4449 32.2792 14.6008 32.4435 14.8107C32.6077 15.0207 32.7069 15.2752 32.7283 15.5422V15.6727C32.7358 15.8433 32.7099 16.0137 32.6522 16.1742C32.5944 16.3347 32.5061 16.482 32.392 16.6079C32.278 16.7337 32.1406 16.8356 31.9876 16.9076C31.8347 16.9796 31.6692 17.0203 31.5007 17.0275V17.0027ZM25.7554 14.1065V15.0512H28.0081C27.9712 15.4969 27.7874 15.9172 27.4863 16.2445C27.259 16.4746 26.9861 16.6533 26.6857 16.769C26.3852 16.8847 26.064 16.9347 25.7431 16.9157C25.3351 16.9187 24.9325 16.8203 24.5709 16.629C24.2092 16.4377 23.8995 16.1594 23.6689 15.8186C23.4382 15.4778 23.2938 15.0849 23.2482 14.6743C23.2026 14.2638 23.2573 13.8482 23.4075 13.4641C23.5576 13.0799 23.7986 12.739 24.1093 12.4712C24.42 12.2034 24.7909 12.0169 25.1894 11.9282C25.5879 11.8394 26.0018 11.8511 26.3948 11.9622C26.7878 12.0733 27.1479 12.2804 27.4434 12.5653L28.1063 11.9003C27.797 11.5905 27.4297 11.3463 27.026 11.1819C26.6224 11.0176 26.1904 10.9364 25.7554 10.9432C25.3056 10.9252 24.8567 10.9972 24.4343 11.1548C24.012 11.3125 23.6245 11.5529 23.2939 11.8622C22.6262 12.4869 22.231 13.3546 22.1952 14.2743C22.1775 14.7298 22.2485 15.1842 22.4042 15.6119C22.56 16.0395 22.7974 16.4318 23.1029 16.7666C23.4084 17.1013 23.776 17.3718 24.1848 17.5627C24.5936 17.7535 25.0355 17.861 25.4853 17.879H25.7554C26.1524 17.9025 26.5501 17.8465 26.9258 17.7143C27.3015 17.5821 27.6478 17.3762 27.9448 17.1083C28.2418 16.8405 28.4837 16.516 28.6568 16.1535C28.8299 15.7909 28.9306 15.3973 28.9534 14.9953C28.9595 14.8939 28.9595 14.7922 28.9534 14.6907C28.9576 14.4824 28.9412 14.2742 28.9042 14.0693L25.7554 14.1065ZM49.2462 14.8399C49.0967 14.3693 48.7847 13.969 48.3675 13.7122C47.9502 13.4554 47.4556 13.3594 46.9741 13.4416C46.4927 13.5239 46.0566 13.7789 45.7456 14.1601C45.4347 14.5413 45.2697 15.0231 45.281 15.5173V15.6727C45.2788 16.1512 45.4291 16.6176 45.7095 17.0028C45.9899 17.388 46.3855 17.6714 46.8376 17.8109C47.2896 17.9505 47.7741 17.9387 48.219 17.7775C48.664 17.6162 49.0457 17.314 49.3076 16.9157L48.5526 16.3874C48.4429 16.5799 48.2843 16.739 48.0932 16.8483C47.9021 16.9576 47.6856 17.0131 47.4662 17.0089C47.2414 17.0099 47.0216 16.9422 46.8354 16.8147C46.6493 16.6872 46.5054 16.5058 46.4227 16.2942L49.3751 15.0512L49.2462 14.8399ZM46.2385 15.5857C46.2216 15.261 46.331 14.9425 46.5433 14.6985C46.7556 14.4545 47.0538 14.3045 47.3741 14.2806C47.5409 14.269 47.7074 14.3084 47.8519 14.3937C47.9963 14.479 48.1122 14.6063 48.1843 14.7591L46.2385 15.5857ZM43.8446 17.7485H44.8145V11.1856H43.8446V17.7485ZM42.261 13.9201H42.2241C42.0806 13.7516 41.9024 13.6169 41.702 13.5257C41.5015 13.4344 41.2838 13.3887 41.064 13.3918C40.4989 13.422 39.9668 13.6706 39.5773 14.0863C39.1878 14.502 38.9707 15.0531 38.9707 15.6261C38.9707 16.1991 39.1878 16.7502 39.5773 17.1659C39.9668 17.5816 40.4989 17.8301 41.064 17.8603C41.283 17.8626 41.5 17.8171 41.7001 17.727C41.9003 17.637 42.079 17.5044 42.2241 17.3383H42.261V17.6552C42.261 18.5129 41.8067 18.9666 41.0824 18.9666C40.8379 18.9599 40.6009 18.8794 40.4019 18.7355C40.2028 18.5915 40.0508 18.3907 39.9653 18.1586L39.1243 18.5067C39.2805 18.9017 39.5512 19.2396 39.9007 19.4759C40.2502 19.7122 40.6622 19.8358 41.0824 19.8304C42.218 19.8304 43.1571 19.153 43.1571 17.5061V13.5286H42.261V13.9201ZM41.1438 17.0275C40.8054 17.0043 40.4883 16.8518 40.2567 16.6008C40.0251 16.3499 39.8963 16.0192 39.8963 15.6758C39.8963 15.3323 40.0251 15.0017 40.2567 14.7508C40.4883 14.4998 40.8054 14.3473 41.1438 14.3241C41.3051 14.3297 41.4636 14.3674 41.6105 14.4351C41.7573 14.5028 41.8895 14.5992 41.9995 14.7187C42.1096 14.8382 42.1952 14.9784 42.2517 15.1315C42.3081 15.2845 42.3342 15.4473 42.3285 15.6105V15.6727C42.3437 15.8356 42.327 15.9999 42.2793 16.1562C42.2317 16.3125 42.154 16.4578 42.0508 16.5837C41.9476 16.7095 41.8208 16.8135 41.6778 16.8897C41.5348 16.9659 41.3784 17.0127 41.2175 17.0275H41.1438ZM53.7885 11.1856H51.4683V17.7485H52.4381V15.2625H53.7885C54.3217 15.3177 54.8546 15.1562 55.2702 14.8136C55.6858 14.4709 55.9499 13.9752 56.0044 13.4353C56.0589 12.8955 55.8994 12.3559 55.561 11.9351C55.2226 11.5144 54.7329 11.247 54.1998 11.1918H53.7885V11.1856ZM53.7885 14.3365H52.4381V12.0991H53.7885C54.0832 12.0991 54.3657 12.2177 54.5741 12.4286C54.7825 12.6396 54.8995 12.9257 54.8995 13.224C54.8995 13.5224 54.7825 13.8085 54.5741 14.0195C54.3657 14.2304 54.0832 14.3489 53.7885 14.3489V14.3365ZM59.7732 13.3981C59.4181 13.3831 59.0662 13.4726 58.7601 13.6556C58.4541 13.8387 58.2069 14.1075 58.0484 14.4297L58.9016 14.7964C59.0175 14.6233 59.1804 14.4879 59.3708 14.4066C59.5611 14.3253 59.7706 14.3017 59.9739 14.3385C60.1772 14.3753 60.3656 14.4711 60.5163 14.6141C60.667 14.7572 60.7735 14.9414 60.8229 15.1444V15.2252C60.511 15.0575 60.1632 14.97 59.8101 14.9704C58.8893 14.9704 57.9686 15.4987 57.9686 16.4558C57.9877 16.857 58.1632 17.2342 58.4567 17.5045C58.7501 17.7748 59.1375 17.9162 59.5339 17.8976H59.583C59.8232 17.9101 60.0625 17.8594 60.2776 17.7505C60.4927 17.6416 60.6764 17.4782 60.8106 17.2761V17.7982H61.7682V15.2252C61.7698 14.9877 61.7252 14.7522 61.6369 14.5322C61.5486 14.3121 61.4184 14.1118 61.2537 13.9427C61.089 13.7737 60.8929 13.6391 60.6768 13.5467C60.4607 13.4543 60.2288 13.4059 59.9942 13.4043C59.9309 13.3981 59.8672 13.3981 59.8039 13.4043L59.7732 13.3981ZM59.6566 16.9965C59.3374 16.9965 58.8955 16.8287 58.8955 16.4371C58.8955 15.9151 59.4479 15.7348 59.9328 15.7348C60.2411 15.7286 60.5457 15.8036 60.8167 15.9524C60.7841 16.2376 60.6505 16.5013 60.4405 16.6944C60.2306 16.8875 59.9586 16.9971 59.675 17.0027L59.6566 16.9965ZM65.181 13.5472L64.07 16.3936L62.9221 13.5472H61.8357L63.5605 17.5371L62.5723 19.7434H63.6096L66.2675 13.5286L65.181 13.5472ZM56.4525 17.7485H57.4162V11.1856H56.4525V17.7485Z" fill="white"/>
<path d="M6.41389 5.95886C6.24333 6.16304 6.15559 6.42511 6.16836 6.69221V18.3078C6.1524 18.5753 6.24053 18.8386 6.41389 19.0411L6.45072 19.0846L12.8713 12.5653V12.4099L6.45072 5.92157L6.41389 5.95886Z" fill="url(#paint0_linear_104_104)"/>
<path d="M15.0012 14.7467L12.8713 12.5653V12.4099L15.0012 10.2409L15.0442 10.272L17.5731 11.7449C18.2974 12.1613 18.2974 12.8387 17.5731 13.2613L15.0565 14.7218L15.0012 14.7467Z" fill="url(#paint1_linear_104_104)"/>
<path d="M15.0626 14.7156L12.8713 12.5031L6.41389 19.0411C6.56049 19.1733 6.74815 19.2494 6.94434 19.2562C7.14052 19.263 7.33288 19.2001 7.48808 19.0784L15.0626 14.728" fill="url(#paint2_linear_104_104)"/>
<path d="M15.0626 10.2844L7.48808 5.93401C7.3382 5.80485 7.14781 5.73392 6.95099 5.73392C6.75417 5.73392 6.56378 5.80485 6.41389 5.93401L12.8713 12.5031L15.0626 10.2844Z" fill="url(#paint3_linear_104_104)"/>
<path opacity="0.2" d="M15.0012 14.6659L7.48808 19.0163C7.33878 19.1307 7.15665 19.1926 6.9694 19.1926C6.78215 19.1926 6.60002 19.1307 6.45072 19.0163L6.41389 19.0536L6.45072 19.0971C6.60002 19.2115 6.78215 19.2734 6.9694 19.2734C7.15665 19.2734 7.33878 19.2115 7.48808 19.0971L15.0626 14.7467L15.0012 14.6659Z" fill="black"/>
<path opacity="0.12" d="M6.41389 18.9666C6.24561 18.7596 6.16408 18.4941 6.18677 18.227V18.3078C6.16846 18.5746 6.25443 18.8379 6.42616 19.0411L6.46299 19.0038L6.41389 18.9666Z" fill="black"/>
<path opacity="0.12" d="M17.5731 13.1867L14.9828 14.6721L15.0258 14.7218L17.5731 13.2551C17.7233 13.1914 17.8539 13.088 17.951 12.9557C18.0482 12.8234 18.1085 12.6671 18.1256 12.5031C18.0931 12.653 18.0261 12.7931 17.9301 12.9118C17.8341 13.0306 17.7118 13.1248 17.5731 13.1867Z" fill="black"/>
<path opacity="0.25" d="M7.48808 6.00236L17.5731 11.8195C17.7118 11.8814 17.8341 11.9756 17.9301 12.0944C18.0261 12.2132 18.0931 12.3532 18.1256 12.5031C18.1083 12.3384 18.048 12.1814 17.9509 12.0481C17.8538 11.9149 17.7234 11.8102 17.5731 11.7449L7.48808 5.92779C6.76377 5.50518 6.16837 5.85321 6.16837 6.69221V6.77301C6.18678 5.934 6.76377 5.58597 7.48808 6.00236Z" fill="white"/>
<path d="M22.4346 8.83634V5.67298H23.386C23.5964 5.66322 23.8066 5.69674 24.0039 5.77151C24.2012 5.84628 24.3815 5.96075 24.5339 6.10802C24.8118 6.42064 24.9573 6.83133 24.939 7.25155C24.9456 7.46053 24.9111 7.66875 24.8373 7.86403C24.7635 8.05932 24.652 8.23774 24.5093 8.38887C24.3578 8.53735 24.1776 8.6526 23.9801 8.72745C23.7826 8.8023 23.572 8.83514 23.3615 8.82391L22.4346 8.83634ZM22.8336 8.45102H23.386C23.6705 8.47528 23.9529 8.38521 24.1723 8.2003C24.3917 8.01539 24.5304 7.75048 24.5584 7.46286C24.5645 7.39671 24.5645 7.33013 24.5584 7.26398C24.5822 6.97402 24.4916 6.68631 24.3064 6.46383C24.1212 6.24136 23.8564 6.10225 23.5702 6.07694H22.8336V8.45102Z" fill="white" stroke="white" stroke-width="0.2" stroke-miterlimit="10"/>
<path d="M25.5528 8.83634V5.67297H25.9518V8.83634H25.5528Z" fill="white" stroke="white" stroke-width="0.2" stroke-miterlimit="10"/>
<path d="M27.5109 8.89227C27.2751 8.8898 27.0457 8.81385 26.8541 8.67475C26.6404 8.52922 26.4891 8.30718 26.4305 8.05327L26.7804 7.89168C26.8225 8.06381 26.917 8.21818 27.0505 8.33294C27.1735 8.44505 27.3331 8.50705 27.4986 8.50695C27.6587 8.51237 27.8162 8.46433 27.9467 8.37023C28.0066 8.32949 28.0551 8.27373 28.0873 8.20837C28.1196 8.14302 28.1346 8.07031 28.1308 7.99734C28.1358 7.9198 28.1216 7.84222 28.0894 7.77167C28.0573 7.70112 28.0082 7.63983 27.9467 7.59337C27.7599 7.46714 27.5519 7.37657 27.3329 7.32613C27.1255 7.24996 26.9371 7.12909 26.7804 6.97188C26.7112 6.90308 26.6565 6.8208 26.6196 6.73001C26.5827 6.63922 26.5643 6.5418 26.5656 6.44362C26.5626 6.32687 26.5847 6.21085 26.6302 6.10356C26.6758 5.99627 26.7438 5.90026 26.8295 5.82214C27.0186 5.67135 27.2501 5.58527 27.4906 5.57634C27.7311 5.5674 27.9682 5.63606 28.1677 5.77242C28.314 5.88249 28.425 6.03382 28.4868 6.20746L28.1247 6.3504C28.0871 6.24335 28.0213 6.14878 27.9344 6.07694C27.8183 5.99201 27.6787 5.94629 27.5354 5.94629C27.3922 5.94629 27.2526 5.99201 27.1364 6.07694C27.0872 6.1149 27.0473 6.16376 27.0196 6.21978C26.9919 6.2758 26.9773 6.33749 26.9768 6.40012C26.9765 6.45873 26.9904 6.51653 27.0171 6.56851C27.0438 6.62049 27.0827 6.66508 27.1303 6.69843C27.2602 6.79892 27.4083 6.8728 27.5661 6.91595C27.6985 6.95331 27.8278 7.0011 27.9528 7.05889C28.0638 7.10887 28.1688 7.17142 28.2659 7.24534C28.3693 7.3185 28.4501 7.41975 28.4991 7.53744C28.5613 7.66246 28.5909 7.80153 28.5851 7.9414C28.5852 8.0834 28.5537 8.2236 28.493 8.35158C28.4398 8.46902 28.3519 8.56678 28.2413 8.63125C28.1408 8.70548 28.0288 8.76219 27.9099 8.79905C27.7826 8.85155 27.6479 8.88303 27.5109 8.89227Z" fill="white" stroke="white" stroke-width="0.2" stroke-miterlimit="10"/>
<path d="M29.5181 8.83634H29.1191V5.67297H30.181C30.4349 5.67276 30.6799 5.76799 30.8685 5.94021C31.0432 6.10764 31.1453 6.33844 31.1522 6.58195C31.1591 6.82547 31.0703 7.06181 30.9053 7.23912L30.8685 7.28262C30.6826 7.45918 30.4358 7.55509 30.181 7.54986H29.5181V8.83634ZM29.5181 7.17075H30.1933C30.2716 7.17324 30.3494 7.15644 30.42 7.12181C30.4906 7.08717 30.5518 7.03572 30.5984 6.97188C30.6465 6.92338 30.6846 6.86575 30.7106 6.80229C30.7366 6.73884 30.75 6.6708 30.75 6.6021C30.75 6.53339 30.7366 6.46535 30.7106 6.4019C30.6846 6.33844 30.6465 6.28081 30.5984 6.23231C30.5466 6.17663 30.4837 6.13284 30.4138 6.10389C30.3439 6.07495 30.2687 6.06152 30.1933 6.06451H29.5181V7.17075Z" fill="white" stroke="white" stroke-width="0.2" stroke-miterlimit="10"/>
<path d="M34.1831 8.41373C33.8819 8.71621 33.4748 8.88593 33.0506 8.88593C32.6264 8.88593 32.2193 8.71621 31.9181 8.41373C31.6255 8.09804 31.4626 7.68137 31.4626 7.24844C31.4626 6.81552 31.6255 6.39885 31.9181 6.08316C32.2206 5.77841 32.63 5.60733 33.0567 5.60733C33.4835 5.60733 33.8929 5.77841 34.1954 6.08316C34.3498 6.23477 34.4724 6.41643 34.5557 6.61721C34.639 6.818 34.6814 7.03376 34.6803 7.25155C34.6812 7.46953 34.6374 7.68532 34.5519 7.88534C34.4663 8.08536 34.3407 8.26527 34.1831 8.41373ZM32.2005 8.15271C32.3103 8.2672 32.4421 8.3577 32.5878 8.41862C32.7335 8.47955 32.8899 8.50961 33.0475 8.50695C33.2047 8.51304 33.3612 8.48452 33.5064 8.42336C33.6516 8.3622 33.782 8.26985 33.8885 8.15271C34.1137 7.90679 34.2388 7.5838 34.2388 7.24844C34.2388 6.91308 34.1137 6.5901 33.8885 6.34418C33.6652 6.11875 33.3628 5.99216 33.0475 5.99216C32.7322 5.99216 32.4298 6.11875 32.2066 6.34418C31.9832 6.59066 31.8587 6.91271 31.8576 7.24724C31.8565 7.58177 31.9787 7.90468 32.2005 8.15271Z" fill="white" stroke="white" stroke-width="0.2" stroke-miterlimit="10"/>
<path d="M35.2205 8.83634V5.67297H35.7422L37.2522 8.12784V5.67297H37.6512V8.83634H37.2154L35.6808 6.25717V8.83634H35.2205Z" fill="white" stroke="white" stroke-width="0.2" stroke-miterlimit="10"/>
<path d="M38.3325 8.83634V5.67297H38.7315V8.83634H38.3325ZM38.7069 5.44302H38.3571L38.5903 4.87747H39.02L38.7069 5.44302Z" fill="white" stroke="white" stroke-width="0.2" stroke-miterlimit="10"/>
<path d="M40.2231 8.83635L39.1243 5.67299H39.5663L40.4072 8.21486L41.328 5.65434H41.7638L40.6343 8.83635H40.2231Z" fill="white" stroke="white" stroke-width="0.2" stroke-miterlimit="10"/>
<path d="M44.0349 6.06451H42.617V7.05889H43.8999V7.43799H42.617V8.43858H44.0349V8.83634H42.1934V5.67297H44.0349V6.06451Z" fill="white" stroke="white" stroke-width="0.2" stroke-miterlimit="10"/>
<path d="M44.661 8.83634V5.67297H45.0723V8.43858H46.4227V8.83634H44.661Z" fill="white" stroke="white" stroke-width="0.2" stroke-miterlimit="10"/>
<path d="M47.9511 8.83634V5.67297H48.4421L49.9521 8.12784V5.67297H50.3511V8.83634H49.9398L48.35 6.25717V8.83634H47.9511Z" fill="white" stroke="white" stroke-width="0.2" stroke-miterlimit="10"/>
<path d="M53.6105 8.41373C53.4606 8.56557 53.2826 8.68601 53.0867 8.76819C52.8908 8.85037 52.6808 8.89266 52.4688 8.89266C52.2567 8.89266 52.0468 8.85037 51.8509 8.76819C51.655 8.68601 51.477 8.56557 51.3271 8.41373C51.0345 8.09805 50.8716 7.68137 50.8716 7.24845C50.8716 6.81552 51.0345 6.39885 51.3271 6.08316C51.4733 5.92639 51.6506 5.80271 51.8474 5.72023C52.0441 5.63776 52.2559 5.59836 52.4688 5.60462C52.6812 5.60176 52.892 5.64272 53.0882 5.72499C53.2845 5.80726 53.4622 5.92913 53.6105 6.08316C53.7597 6.23716 53.8767 6.41995 53.9548 6.62066C54.0328 6.82138 54.0702 7.03592 54.0647 7.25155C54.0704 7.46628 54.0331 7.67996 53.955 7.8797C53.877 8.07943 53.7598 8.2611 53.6105 8.41373ZM51.6217 8.15271C51.7318 8.26508 51.8628 8.35426 52.0072 8.41513C52.1515 8.47599 52.3063 8.50732 52.4626 8.50732C52.619 8.50732 52.7738 8.47599 52.9181 8.41513C53.0625 8.35426 53.1935 8.26508 53.3036 8.15271C53.5261 7.90546 53.6495 7.58298 53.6495 7.24845C53.6495 6.91391 53.5261 6.59143 53.3036 6.34419C53.1935 6.23182 53.0625 6.14263 52.9181 6.08177C52.7738 6.02091 52.619 5.98957 52.4626 5.98957C52.3063 5.98957 52.1515 6.02091 52.0072 6.08177C51.8628 6.14263 51.7318 6.23182 51.6217 6.34419C51.3991 6.59143 51.2758 6.91391 51.2758 7.24845C51.2758 7.58298 51.3991 7.90546 51.6217 8.15271Z" fill="white" stroke="white" stroke-width="0.2" stroke-miterlimit="10"/>
</g>
<defs>
<linearGradient id="paint0_linear_104_104" x1="12.3066" y1="6.57413" x2="3.49465" y2="15.2712" gradientUnits="userSpaceOnUse">
<stop stop-color="#00A0FF"/>
<stop offset="0.01" stop-color="#00A1FF"/>
<stop offset="0.26" stop-color="#00BEFF"/>
<stop offset="0.51" stop-color="#00D2FF"/>
<stop offset="0.76" stop-color="#00DFFF"/>
<stop offset="1" stop-color="#00E3FF"/>
</linearGradient>
<linearGradient id="paint1_linear_104_104" x1="18.543" y1="12.4969" x2="5.9965" y2="12.4969" gradientUnits="userSpaceOnUse">
<stop stop-color="#FFE000"/>
<stop offset="0.41" stop-color="#FFBD00"/>
<stop offset="0.78" stop-color="#FFA500"/>
<stop offset="1" stop-color="#FF9C00"/>
</linearGradient>
<linearGradient id="paint2_linear_104_104" x1="13.8779" y1="13.7088" x2="1.92777" y2="25.5054" gradientUnits="userSpaceOnUse">
<stop stop-color="#FF3A44"/>
<stop offset="1" stop-color="#C31162"/>
</linearGradient>
<linearGradient id="paint3_linear_104_104" x1="4.78113" y1="2.09944" x2="10.1131" y2="7.36561" gradientUnits="userSpaceOnUse">
<stop stop-color="#32A071"/>
<stop offset="0.07" stop-color="#2DA771"/>
<stop offset="0.48" stop-color="#15CF74"/>
<stop offset="0.8" stop-color="#06E775"/>
<stop offset="1" stop-color="#00F076"/>
</linearGradient>
<clipPath id="clip0_104_104">
<rect width="70" height="21" fill="white" transform="translate(1 2)"/>
</clipPath>
</defs>
</svg>
