<svg id="icon" width="48" height="48" viewBox="0 0 48 48" fill="none" xmlns="http://www.w3.org/2000/svg">
<path d="M46.0499 46.6546V20.4025H40.7969V14.3793L33.8192 7.6585V4.64555H31.047V0H16.0274V4.64555H13.3144V7.6585L6.33668 14.3793V20.4032H1.08369V46.6546H0V48H47.0192V46.6546H46.0499ZM44.7045 30.1645H38.9786V27.6681H44.7045V30.1645ZM44.7045 38.3732H38.9786V35.8769H44.7045V38.3732ZM39.4515 14.9517V21.7479H44.7045V26.3228H37.6333V31.5098H44.7045V34.5315H37.6333V39.7186H44.7045V46.6546H33.8192V9.52654L39.4515 14.9517ZM17.3727 1.34537H29.7017V4.64555H17.3727V1.34537ZM32.4738 5.99092V46.6546H14.6598V5.99092H32.4738ZM2.42906 27.6681H8.1536V30.1645H2.42906V27.6681ZM2.42906 35.8769H8.1536V38.3732H2.42906V35.8769ZM2.42906 39.7186H9.49896V34.5315H2.42906V31.5098H9.49896V26.3228H2.42906V21.7485H7.68205V14.9517L13.3144 9.52654V46.6546H2.42906V39.7186Z" fill="currentColor"/>
<path d="M20.375 9.76129H16.0853V19.5704H20.375V9.76129ZM19.0296 18.225H17.4306V11.1067H19.0296V18.225Z" fill="currentColor"/>
<path d="M25.7116 9.76129H21.4219V19.5704H25.7116V9.76129ZM24.3662 18.225H22.7672V11.1067H24.3662V18.225Z" fill="currentColor"/>
<path d="M31.1047 9.76129H26.815V19.5704H31.1047V9.76129ZM29.7593 18.225H28.1604V11.1067H29.7593V18.225Z" fill="currentColor"/>
<path d="M20.346 21.8461H16.0563V31.6558H20.346V21.8461ZM19.0007 30.3104H17.4017V23.1914H19.0007V30.3104Z" fill="currentColor"/>
<path d="M25.6823 21.8461H21.3926V31.6558H25.6823V21.8461ZM24.3369 30.3104H22.7379V23.1914H24.3369V30.3104Z" fill="currentColor"/>
<path d="M31.0758 21.8461H26.7861V31.6558H31.0758V21.8461ZM29.7305 30.3104H28.1315V23.1914H29.7305V30.3104Z" fill="currentColor"/>
<path d="M20.3172 33.5528H16.0275V43.3619H20.3172V33.5528ZM18.9718 42.0165H17.3728V34.8982H18.9718V42.0165Z" fill="currentColor"/>
<path d="M25.6538 33.5528H21.3641V43.3619H25.6538V33.5528ZM24.3085 42.0165H22.7095V34.8982H24.3085V42.0165Z" fill="currentColor"/>
<path d="M31.047 33.5528H26.7573V43.3619H31.047V33.5528ZM29.7016 42.0165H28.1026V34.8982H29.7016V42.0165Z" fill="currentColor"/>
</svg>
