<svg id="icon" width="54" height="56" viewBox="0 0 54 56" fill="none" xmlns="http://www.w3.org/2000/svg">
<path d="M33.1263 0.00290411C32.2986 -0.0447192 31.513 0.497495 31.291 1.326L30.8015 3.15676C30.4568 3.08978 30.1122 3.07939 29.7793 3.12611C28.5721 3.29549 27.5199 4.16732 27.1854 5.41569L22.7857 21.838C22.3591 23.43 23.2521 25.0701 24.7868 25.6006L24.4029 27.035C24.1492 27.9818 24.7201 28.9709 25.6669 29.2246L27.8305 29.805C28.7773 30.0587 29.7653 29.4878 30.019 28.5409L30.404 27.1065C31.9988 27.4154 33.5922 26.4401 34.0189 24.8476L35.928 17.7222H48.1005V47.2778H46.4254C46.0495 45.6161 44.5624 44.3704 42.7888 44.3704H37.7963V43.7094C37.7963 41.5838 36.0673 39.8548 33.9417 39.8548H12.5779C10.4523 39.8548 8.72222 41.5835 8.72222 43.7094V44.3704H3.72966C1.67336 44.3704 0 46.0437 0 48.1V52.2703C0 54.3266 1.67336 56 3.72966 56H42.7888C44.5623 56 46.0494 54.7542 46.4254 53.0926H53.1953C53.5398 53.0926 53.8279 52.8045 53.8279 52.46V52.1726C53.8581 52.0818 53.9153 52.019 53.9153 51.9103V12.9647C53.9153 12.8253 53.8057 12.7466 53.7541 12.6274V12.54C53.7541 12.2115 53.4671 11.9074 53.1226 11.9074H37.4862L38.4198 8.42531C38.8465 6.83258 37.9535 5.19009 36.4175 4.66045L36.9082 2.83083C37.1619 1.88397 36.5916 0.893933 35.6441 0.640053L33.4817 0.0608428C33.3633 0.029094 33.2445 0.00972518 33.1263 0.00292185V0.00290411ZM32.9286 1.16587C33.0092 1.15557 33.0937 1.1612 33.1796 1.18406L35.3432 1.7644C35.687 1.85653 35.8772 2.18542 35.7849 2.52987L35.2977 4.3504L31.9281 3.44752L32.4153 1.62698C32.4845 1.36863 32.687 1.19677 32.9286 1.16588V1.16587ZM30.3199 4.26066C30.451 4.2691 30.5836 4.29096 30.7163 4.32654L33.3114 5.02159L35.5578 5.62351C35.559 5.6239 35.5601 5.62428 35.5613 5.62466L35.9065 5.71666C36.9681 6.00111 37.58 7.06275 37.2955 8.12435L36.1678 12.3344C36.1674 12.336 36.167 12.3375 36.1666 12.3391L35.735 13.9484L34.9196 16.9909C34.9192 16.9932 34.9188 16.9955 34.9184 16.9977L32.8957 24.5468C32.6113 25.6084 31.5496 26.2213 30.488 25.9369L30.1803 25.8551C30.1675 25.8509 30.1546 25.8471 30.1416 25.8438H30.1405L25.6465 24.6399L25.299 24.5468C24.2374 24.2623 23.6244 23.2007 23.9089 22.1391L28.3097 5.71678C28.5231 4.92058 29.1729 4.37654 29.9327 4.27443C30.0593 4.2574 30.1888 4.25239 30.3199 4.26082V4.26066ZM29.8168 6.81487L27.3376 14.9465L28.4506 15.285L30.9287 7.15444L29.8168 6.81487ZM37.175 13.0703H52.7524V51.8535C52.7369 51.8778 52.7232 51.9033 52.7115 51.9296H46.5185V48.4407H48.682C48.8362 48.4407 48.9841 48.3795 49.0932 48.2704C49.2022 48.1614 49.2635 48.0135 49.2635 47.8593V17.1407C49.2635 16.9865 49.2022 16.8386 49.0932 16.7295C48.9841 16.6205 48.8362 16.5592 48.682 16.5592H36.2404L37.175 13.0703ZM25.9077 25.914L29.2773 26.8169L28.8958 28.24C28.8035 28.5844 28.4759 28.7729 28.1314 28.6806L25.9679 28.1014C25.6235 28.0091 25.4338 27.6804 25.5261 27.3359L25.9077 25.914ZM12.5779 41.0178H33.9417C35.4435 41.0178 36.6333 42.2076 36.6333 43.7094V44.3704H9.88518V43.7094C9.88518 42.2079 11.0762 41.0178 12.5779 41.0178ZM3.72966 45.5333H9.3037H37.2148H42.7888C44.221 45.5333 45.3555 46.6679 45.3555 48.1V52.2692C45.3549 53.7008 44.2206 54.8348 42.7888 54.8348H3.72966C2.29753 54.8348 1.16296 53.7002 1.16296 52.2681V48.0977C1.16296 46.6656 2.29753 45.5311 3.72966 45.5311V45.5333ZM3.80461 50.3328V51.4958H20.1099V50.3328H3.80461Z" fill="currentColor"/>
</svg>
