<svg xmlns="http://www.w3.org/2000/svg" viewBox="0 0 317.06 97.21"><defs><style>.cls-1{fill:#0d3f3c;}</style></defs><g id="Camada_2" data-name="Camada 2"><g id="Layer_1" data-name="Layer 1"><path class="cls-1" d="M1.64,78.6c.16,0,.24.08.24.25V92.77A.38.38,0,0,1,1.8,93a.46.46,0,0,1-.28.06H.29a.34.34,0,0,1-.23,0A.3.3,0,0,1,0,92.83v-14c0-.18.08-.27.23-.27Z"/><path class="cls-1" d="M6.84,92.85V83c0-.17.07-.26.22-.26H8.23a.2.2,0,0,1,.22.22v1.13c0,.14.06.16.17.06a10.87,10.87,0,0,1,1.87-1.23,3.89,3.89,0,0,1,1.73-.37,3.19,3.19,0,0,1,2.32.8,2.85,2.85,0,0,1,.83,2.15v7.29c0,.21-.1.31-.3.31H14a.22.22,0,0,1-.25-.25v-7a2.15,2.15,0,0,0-.5-1.51,2,2,0,0,0-1.54-.52,3.21,3.21,0,0,0-1.51.36,9.15,9.15,0,0,0-1.69,1.22v7.39a.24.24,0,0,1-.3.29H7.12C6.93,93.1,6.84,93,6.84,92.85Z"/><path class="cls-1" d="M24.92,84.06a3.64,3.64,0,0,0-1.65-.36,3,3,0,0,0-1.76.46,1.4,1.4,0,0,0-.69,1.2,1.15,1.15,0,0,0,.35.81,2.82,2.82,0,0,0,1.24.64l2.48.74a4,4,0,0,1,1.92,1,2.4,2.4,0,0,1,.62,1.65,2.46,2.46,0,0,1-.55,1.59,3.39,3.39,0,0,1-1.5,1.08,5.91,5.91,0,0,1-2.17.38,5.78,5.78,0,0,1-2.68-.6,3.55,3.55,0,0,1-1.66-1.55.35.35,0,0,1-.06-.16.17.17,0,0,1,.1-.15l.76-.43c.13-.08.23-.07.29,0a3.59,3.59,0,0,0,3.27,1.68,3.84,3.84,0,0,0,1.9-.48,1.37,1.37,0,0,0,.76-1.2,1.15,1.15,0,0,0-.45-.92A4.23,4.23,0,0,0,24,88.84l-2-.56a4.27,4.27,0,0,1-2.05-1,2.28,2.28,0,0,1-.61-1.62A2.68,2.68,0,0,1,19.8,84a3.13,3.13,0,0,1,1.4-1.08,5.8,5.8,0,0,1,4.4.11,3.7,3.7,0,0,1,1.58,1.32c.09.14.08.23,0,.28l-.82.45a.54.54,0,0,1-.12,0A.28.28,0,0,1,26,85,2.88,2.88,0,0,0,24.92,84.06Z"/><path class="cls-1" d="M34.14,84C34,84,34,84,34,84.13v6.2a1.89,1.89,0,0,0,.29,1.21,1.24,1.24,0,0,0,1,.33h1.35a.2.2,0,0,1,.22.22l0,.66c0,.13-.08.22-.24.26a12.41,12.41,0,0,1-1.84.09,2.42,2.42,0,0,1-1.79-.57,2.54,2.54,0,0,1-.57-1.83V84.17c0-.14-.07-.22-.2-.22H30.58c-.14,0-.22-.06-.22-.19v-.82a.18.18,0,0,1,.2-.2h1.66c.09,0,.14,0,.14-.15l.21-3.11c0-.17.08-.26.22-.26h1c.15,0,.23.09.23.28v3.09c0,.1,0,.15.16.15h2.46c.14,0,.22.06.22.18v.84c0,.13-.08.19-.22.19Z"/><path class="cls-1" d="M42.25,80.51a.4.4,0,0,1-.08.29.34.34,0,0,1-.27.08H40.77q-.3,0-.3-.33V78.91c0-.21.09-.31.28-.31H42a.22.22,0,0,1,.19.08.25.25,0,0,1,.08.21Zm-.08,12.26a.38.38,0,0,1-.07.27.51.51,0,0,1-.28.06h-1c-.12,0-.2,0-.24,0a.3.3,0,0,1-.06-.22V83c0-.19.08-.28.24-.28H42c.14,0,.21.09.21.26Z"/><path class="cls-1" d="M49.51,84c-.11,0-.16.06-.16.18v6.2a1.89,1.89,0,0,0,.29,1.21,1.24,1.24,0,0,0,1,.33H52c.14,0,.21.07.21.22v.66c0,.13-.08.22-.24.26a12.41,12.41,0,0,1-1.84.09,2.46,2.46,0,0,1-1.8-.57,2.59,2.59,0,0,1-.56-1.83V84.17c0-.14-.07-.22-.2-.22H46c-.15,0-.22-.06-.22-.19v-.82a.18.18,0,0,1,.2-.2h1.66c.09,0,.14,0,.14-.15l.21-3.11c0-.17.07-.26.22-.26h1c.16,0,.24.09.24.28v3.09c0,.1.05.15.16.15H52q.21,0,.21.18v.84c0,.13-.07.19-.21.19Z"/><path class="cls-1" d="M61,91.57a7.14,7.14,0,0,0,1.58-1.26V83c0-.19.1-.28.31-.28H64a.24.24,0,0,1,.28.28l0,9.83c0,.17-.07.25-.22.25H62.84a.19.19,0,0,1-.21-.21V91.74q0-.24-.18-.06a7.87,7.87,0,0,1-1.88,1.26,4.16,4.16,0,0,1-1.68.36,3.17,3.17,0,0,1-2.25-.82,2.85,2.85,0,0,1-.88-2.17V83a.27.27,0,0,1,.3-.3h1.09c.17,0,.25.09.25.28v6.86a2.17,2.17,0,0,0,.54,1.55,1.91,1.91,0,0,0,1.48.58A3.16,3.16,0,0,0,61,91.57Z"/><path class="cls-1" d="M71.52,84q-.15,0-.15.18v6.2a1.83,1.83,0,0,0,.29,1.21,1.21,1.21,0,0,0,1,.33H74c.14,0,.21.07.21.22l0,.66a.26.26,0,0,1-.23.26,12.5,12.5,0,0,1-1.84.09,2.46,2.46,0,0,1-1.8-.57,2.54,2.54,0,0,1-.57-1.83V84.17c0-.14-.06-.22-.19-.22H68c-.14,0-.21-.06-.21-.19v-.82c0-.13.06-.2.19-.2h1.67c.09,0,.13,0,.13-.15L70,79.48c0-.17.07-.26.21-.26h1c.16,0,.23.09.23.28v3.09a.14.14,0,0,0,.16.15H74c.15,0,.22.06.22.18v.84c0,.13-.07.19-.22.19Z"/><path class="cls-1" d="M79.41,92.63a4.55,4.55,0,0,1-1.74-1.89A6,6,0,0,1,77.06,88a6.09,6.09,0,0,1,.63-2.81,4.77,4.77,0,0,1,1.76-1.93,5.13,5.13,0,0,1,5.14,0,4.65,4.65,0,0,1,1.74,1.93A6.16,6.16,0,0,1,87,88a5.91,5.91,0,0,1-.63,2.76,4.66,4.66,0,0,1-1.75,1.9,5.27,5.27,0,0,1-5.16,0Zm5-1.67a5.8,5.8,0,0,0,0-6.08,3.11,3.11,0,0,0-4.78,0,4.8,4.8,0,0,0-.88,3,4.73,4.73,0,0,0,.88,3A2.89,2.89,0,0,0,82,92.07,2.83,2.83,0,0,0,84.42,91Z"/><path class="cls-1" d="M103.8,92.83V92c0-.12,0-.18-.1-.18a.31.31,0,0,0-.15.1,6.36,6.36,0,0,1-1.28,1,3.52,3.52,0,0,1-1.79.4,4.24,4.24,0,0,1-2.23-.59,4,4,0,0,1-1.55-1.77,7.54,7.54,0,0,1,0-5.75,4.7,4.7,0,0,1,1.63-2,4.16,4.16,0,0,1,2.36-.69,4,4,0,0,1,1.53.27,4.71,4.71,0,0,1,1.21.76.53.53,0,0,0,.22.12c.06,0,.09-.08.09-.25v-4.6c0-.17.07-.25.22-.25h1.19c.14,0,.22.08.22.25V92.79a.4.4,0,0,1-.06.25.39.39,0,0,1-.26.06h-1C103.89,93.1,103.8,93,103.8,92.83Zm-1.32-8.75a3,3,0,0,0-1.38-.32,2.91,2.91,0,0,0-2.38,1.11,4.92,4.92,0,0,0-.9,3.15,4.57,4.57,0,0,0,.89,3.07,2.88,2.88,0,0,0,2.28,1,2.81,2.81,0,0,0,1.4-.36,3,3,0,0,0,1-.91,2,2,0,0,0,.36-1.1V85A4.85,4.85,0,0,0,102.48,84.08Z"/><path class="cls-1" d="M111.54,90.31a3.43,3.43,0,0,0,1.24,1.27,3.29,3.29,0,0,0,1.72.47,3.48,3.48,0,0,0,3-1.62.21.21,0,0,1,.13-.09.19.19,0,0,1,.14,0l.82.41c.11.06.12.15,0,.27a4.77,4.77,0,0,1-1.82,1.71,5.45,5.45,0,0,1-2.52.54,5,5,0,0,1-2.56-.66A4.62,4.62,0,0,1,110,90.77a5.84,5.84,0,0,1-.63-2.75,6.2,6.2,0,0,1,.64-2.9,4.61,4.61,0,0,1,1.77-1.91,4.9,4.9,0,0,1,2.53-.66,4.84,4.84,0,0,1,2.47.62A4.16,4.16,0,0,1,118.45,85a6.44,6.44,0,0,1,.58,2.85v.07a.62.62,0,0,1,0,.27.27.27,0,0,1-.24.09h-7.49c-.12,0-.17.09-.17.29A3.43,3.43,0,0,0,111.54,90.31Zm5.52-3.11a.5.5,0,0,0,.27,0,.29.29,0,0,0,.06-.22,3.58,3.58,0,0,0-.36-1.6A2.78,2.78,0,0,0,116,84.16a3,3,0,0,0-1.61-.44,3.09,3.09,0,0,0-1.74.5,3.27,3.27,0,0,0-1.13,1.29,3.51,3.51,0,0,0-.37,1.69Z"/><path class="cls-1" d="M129.11,78.66a.25.25,0,0,1,.19-.06h8.78c.13,0,.19.07.19.21v1c0,.16-.08.23-.25.23h-6.83a.3.3,0,0,0-.2,0,.31.31,0,0,0-.05.19v4.57a.19.19,0,0,0,.22.22h5.06a.19.19,0,0,1,.21.21v1q0,.18-.21.18h-5.06c-.15,0-.22.07-.22.21v4.75a.22.22,0,0,0,0,.16.28.28,0,0,0,.16,0h7.17a.25.25,0,0,1,.17,0,.19.19,0,0,1,.05.15v1c0,.14-.07.21-.22.21h-9c-.11,0-.18,0-.22,0a.3.3,0,0,1-.06-.22v-14A.34.34,0,0,1,129.11,78.66Z"/><path class="cls-1" d="M149.61,92.83V92c0-.12,0-.18-.1-.18a.31.31,0,0,0-.15.1,6.36,6.36,0,0,1-1.28,1,3.52,3.52,0,0,1-1.79.4,4.24,4.24,0,0,1-2.23-.59,4,4,0,0,1-1.54-1.77,6.51,6.51,0,0,1-.57-2.86,6.72,6.72,0,0,1,.58-2.89,4.7,4.7,0,0,1,1.63-2,4.16,4.16,0,0,1,2.36-.69,4,4,0,0,1,1.53.27,4.71,4.71,0,0,1,1.21.76.53.53,0,0,0,.22.12c.06,0,.09-.08.09-.25v-4.6c0-.17.07-.25.22-.25H151c.14,0,.22.08.22.25V92.79a.4.4,0,0,1-.06.25.39.39,0,0,1-.26.06h-1C149.7,93.1,149.61,93,149.61,92.83Zm-1.32-8.75a3,3,0,0,0-1.38-.32,2.91,2.91,0,0,0-2.38,1.11,4.92,4.92,0,0,0-.9,3.15,4.57,4.57,0,0,0,.89,3.07,2.88,2.88,0,0,0,2.28,1,2.81,2.81,0,0,0,1.4-.36,3,3,0,0,0,1-.91,2,2,0,0,0,.36-1.1V85A4.85,4.85,0,0,0,148.29,84.08Z"/><path class="cls-1" d="M160.88,91.57a7.14,7.14,0,0,0,1.58-1.26V83c0-.19.1-.28.31-.28h1.08c.18,0,.27.09.27.28l0,9.83c0,.17-.07.25-.21.25h-1.14a.19.19,0,0,1-.21-.21V91.74q0-.24-.18-.06a7.87,7.87,0,0,1-1.88,1.26,4.09,4.09,0,0,1-1.68.36,3.17,3.17,0,0,1-2.25-.82,2.85,2.85,0,0,1-.88-2.17V83a.27.27,0,0,1,.3-.3H157c.17,0,.26.09.26.28v6.86a2.21,2.21,0,0,0,.53,1.55,1.92,1.92,0,0,0,1.48.58A3.14,3.14,0,0,0,160.88,91.57Z"/><path class="cls-1" d="M175.41,83.21A5,5,0,0,1,177,85l0,.16c0,.08,0,.12-.13.13l-1.08.26-.06,0c-.06,0-.13-.05-.19-.16a5.42,5.42,0,0,0-1.2-1.23,2.33,2.33,0,0,0-1.32-.39,2.94,2.94,0,0,0-2.43,1.12,4.74,4.74,0,0,0-.9,3,4.66,4.66,0,0,0,.91,3,3,3,0,0,0,2.45,1.12,2.92,2.92,0,0,0,1.62-.45A4.21,4.21,0,0,0,176,90.25a.2.2,0,0,1,.12-.11l.13,0,.84.31c.09,0,.12.13.08.26a5.1,5.1,0,0,1-1.66,1.85,4.42,4.42,0,0,1-2.52.71,4.8,4.8,0,0,1-2.54-.67,4.55,4.55,0,0,1-1.74-1.89,5.93,5.93,0,0,1-.63-2.78,6.07,6.07,0,0,1,.63-2.8,4.61,4.61,0,0,1,1.75-1.93,4.7,4.7,0,0,1,2.53-.68A4.33,4.33,0,0,1,175.41,83.21Z"/><path class="cls-1" d="M183.38,93.3a3.51,3.51,0,0,1-2.4-.77,2.62,2.62,0,0,1-.87-2.06A2.83,2.83,0,0,1,181.43,88a7.63,7.63,0,0,1,3.83-1l1.52-.12c.22,0,.33-.13.33-.29V86a2.16,2.16,0,0,0-.65-1.67,2.5,2.5,0,0,0-1.77-.62,3.32,3.32,0,0,0-2.82,1.56.3.3,0,0,1-.11.13.18.18,0,0,1-.16,0l-1.06-.35a.14.14,0,0,1-.09-.14.51.51,0,0,1,.05-.17,4.16,4.16,0,0,1,1.68-1.62,5.45,5.45,0,0,1,2.57-.57,4.28,4.28,0,0,1,2.93.89,3.08,3.08,0,0,1,1,2.45v6.92a.35.35,0,0,1-.06.24s-.11,0-.22,0h-1c-.16,0-.25-.1-.28-.31l0-.9c0-.09,0-.13-.09-.13a.26.26,0,0,0-.18.09A4.84,4.84,0,0,1,183.38,93.3Zm3.44-5.47-1.27.11a6.43,6.43,0,0,0-2.81.71,1.81,1.81,0,0,0-1,1.62,1.62,1.62,0,0,0,.59,1.33,2.43,2.43,0,0,0,1.6.49,3.3,3.3,0,0,0,1.19-.22,3.77,3.77,0,0,0,1-.58,2.85,2.85,0,0,0,.69-.76,1.47,1.47,0,0,0,.24-.77V88.14C187.11,87.93,187,87.83,186.82,87.83Z"/><path class="cls-1" d="M201.6,90.74a5.38,5.38,0,0,1-1.53,1.75,4.3,4.3,0,0,1-2.26.79l-.33.84s0,0,0,.07a.08.08,0,0,0,.07,0,1.83,1.83,0,0,1,1.26.47,1.37,1.37,0,0,1,.39,1,1.29,1.29,0,0,1-.62,1.13,2.68,2.68,0,0,1-1.51.41,3.3,3.3,0,0,1-1.72-.43.16.16,0,0,1-.08-.18l.21-.5c0-.07.1-.08.18,0a2.16,2.16,0,0,0,1.21.37c.74,0,1.11-.25,1.11-.74a.69.69,0,0,0-.38-.65,2.76,2.76,0,0,0-1.2-.25.29.29,0,0,1-.12,0,.16.16,0,0,1,0-.1l.61-1.39a4.57,4.57,0,0,1-3.83-2.69,6,6,0,0,1-.55-2.63,6.07,6.07,0,0,1,.63-2.8,4.61,4.61,0,0,1,1.75-1.93,4.73,4.73,0,0,1,2.53-.68,4.33,4.33,0,0,1,2.43.66A5,5,0,0,1,201.47,85l0,.16c0,.08,0,.12-.13.13l-1.08.26-.06,0c-.06,0-.13-.05-.19-.16a5.42,5.42,0,0,0-1.2-1.23,2.33,2.33,0,0,0-1.32-.39,2.94,2.94,0,0,0-2.43,1.12,4.74,4.74,0,0,0-.9,3,4.66,4.66,0,0,0,.91,3,3,3,0,0,0,2.45,1.12,2.9,2.9,0,0,0,1.62-.45,4.21,4.21,0,0,0,1.26-1.39.2.2,0,0,1,.12-.11l.13,0,.84.31C201.62,90.52,201.64,90.61,201.6,90.74Z"/><path class="cls-1" d="M207.82,93.3a3.51,3.51,0,0,1-2.4-.77,2.62,2.62,0,0,1-.87-2.06A2.83,2.83,0,0,1,205.87,88a7.63,7.63,0,0,1,3.83-1l1.52-.12c.22,0,.33-.13.33-.29V86a2.16,2.16,0,0,0-.65-1.67,2.5,2.5,0,0,0-1.77-.62,3.32,3.32,0,0,0-2.82,1.56.25.25,0,0,1-.11.13.18.18,0,0,1-.16,0L205,85.05a.14.14,0,0,1-.09-.14.38.38,0,0,1,.06-.17,4.08,4.08,0,0,1,1.67-1.62,5.45,5.45,0,0,1,2.57-.57,4.28,4.28,0,0,1,2.93.89,3.08,3.08,0,0,1,1,2.45v6.92a.35.35,0,0,1-.06.24s-.11,0-.22,0h-1c-.16,0-.25-.1-.28-.31l0-.9c0-.09,0-.13-.09-.13a.26.26,0,0,0-.18.09A4.84,4.84,0,0,1,207.82,93.3Zm3.44-5.47-1.27.11a6.43,6.43,0,0,0-2.81.71,1.81,1.81,0,0,0-1,1.62,1.65,1.65,0,0,0,.59,1.33,2.43,2.43,0,0,0,1.6.49,3.3,3.3,0,0,0,1.19-.22,3.63,3.63,0,0,0,1-.58,2.85,2.85,0,0,0,.69-.76,1.47,1.47,0,0,0,.24-.77V88.14C211.55,87.93,211.46,87.83,211.26,87.83Zm0-7.65a2.51,2.51,0,0,1-.83.12,4,4,0,0,1-1.35-.28,4,4,0,0,0-1.13-.23,1.4,1.4,0,0,0-.55.09l-.39.18-.24.14a.33.33,0,0,1-.13.06c-.06,0-.1-.05-.14-.16l-.2-.53a.31.31,0,0,1,0-.11.22.22,0,0,1,.09-.16,4.62,4.62,0,0,1,.71-.44,1.78,1.78,0,0,1,.78-.15,3,3,0,0,1,.62.07l.73.21c.21.06.41.13.62.18a2.2,2.2,0,0,0,.61.09,1.42,1.42,0,0,0,.57-.1,3.27,3.27,0,0,0,.54-.29.35.35,0,0,1,.16-.06c.07,0,.12,0,.16.16l.19.6a.3.3,0,0,1,0,.1c0,.07-.06.13-.17.2A3.31,3.31,0,0,1,211.25,80.18Z"/><path class="cls-1" d="M219.31,92.63a4.55,4.55,0,0,1-1.74-1.89A6,6,0,0,1,217,88a6,6,0,0,1,.64-2.81,4.7,4.7,0,0,1,4.33-2.62,4.82,4.82,0,0,1,2.57.69,4.65,4.65,0,0,1,1.74,1.93,6.15,6.15,0,0,1,.61,2.79,6,6,0,0,1-.62,2.76,4.72,4.72,0,0,1-1.75,1.9,5.27,5.27,0,0,1-5.16,0Zm5-1.67a5.8,5.8,0,0,0,0-6.08,2.83,2.83,0,0,0-2.37-1.12,2.89,2.89,0,0,0-2.41,1.12,4.86,4.86,0,0,0-.88,3,4.79,4.79,0,0,0,.88,3,2.92,2.92,0,0,0,2.43,1.12A2.82,2.82,0,0,0,224.31,91Z"/><path class="cls-1" d="M237,92.81V78.87a.34.34,0,0,1,0-.21s.09-.06.19-.06h1.87a.36.36,0,0,1,.23.05.34.34,0,0,1,.11.16L243.78,90c0,.11.08.17.13.17s.13-.06.18-.19l4.34-11.15a.28.28,0,0,1,.29-.25h2c.14,0,.21.08.21.25v14a.25.25,0,0,1-.29.29h-1.29c-.2,0-.29-.08-.29-.25V81.67q0-.11,0-.09a.14.14,0,0,0-.07.09l-4.3,11.18a.4.4,0,0,1-.38.25h-.93a.37.37,0,0,1-.39-.23l-4.25-11.09q0-.09-.06-.09s0,0,0,.09V92.85a.34.34,0,0,1-.05.2.33.33,0,0,1-.22,0h-1C237.08,93.1,237,93,237,92.81Z"/><path class="cls-1" d="M257.43,90.31a3.51,3.51,0,0,0,1.24,1.27,3.35,3.35,0,0,0,1.73.47,3.5,3.5,0,0,0,3.05-1.62c.05-.06.09-.09.13-.09a.19.19,0,0,1,.14,0l.82.41c.1.06.12.15,0,.27a4.84,4.84,0,0,1-1.82,1.71,5.45,5.45,0,0,1-2.52.54,5,5,0,0,1-2.56-.66,4.62,4.62,0,0,1-1.77-1.87,5.72,5.72,0,0,1-.64-2.75,6.2,6.2,0,0,1,.65-2.9,4.61,4.61,0,0,1,1.77-1.91,4.9,4.9,0,0,1,2.53-.66,4.84,4.84,0,0,1,2.47.62A4.2,4.2,0,0,1,264.34,85a6.31,6.31,0,0,1,.59,2.85v.07a.49.49,0,0,1-.06.27.25.25,0,0,1-.23.09h-7.49c-.12,0-.18.09-.18.29A3.54,3.54,0,0,0,257.43,90.31ZM263,87.2a.5.5,0,0,0,.27,0,.29.29,0,0,0,.06-.22,3.58,3.58,0,0,0-.36-1.6,2.85,2.85,0,0,0-1.06-1.17,3,3,0,0,0-1.61-.44,3,3,0,0,0-1.74.5,3.22,3.22,0,0,0-1.14,1.29A3.63,3.63,0,0,0,257,87.2Zm-.2-7.78a.29.29,0,0,1,0,.12q0,.15-.21.21l-4.48,1.41-.12,0c-.09,0-.16-.06-.19-.18l-.16-.43a.25.25,0,0,1,0-.1c0-.1,0-.16.12-.17l4.51-1.88a.15.15,0,0,1,.08,0,.16.16,0,0,1,.16.12Z"/><path class="cls-1" d="M275.9,92.83V92c0-.12,0-.18-.1-.18s-.09,0-.15.1a6.42,6.42,0,0,1-1.29,1,3.48,3.48,0,0,1-1.78.4,4.24,4.24,0,0,1-2.23-.59,4,4,0,0,1-1.55-1.77,6.51,6.51,0,0,1-.56-2.86,6.72,6.72,0,0,1,.58-2.89,4.61,4.61,0,0,1,1.62-2,4.17,4.17,0,0,1,2.37-.69,4,4,0,0,1,1.53.27,4.71,4.71,0,0,1,1.21.76.46.46,0,0,0,.21.12c.07,0,.1-.08.1-.25v-4.6c0-.17.07-.25.22-.25h1.19c.14,0,.21.08.21.25V92.79a.4.4,0,0,1-.06.25s-.12.06-.25.06h-1A.24.24,0,0,1,275.9,92.83Zm-1.32-8.75a3,3,0,0,0-1.38-.32,2.89,2.89,0,0,0-2.38,1.11,4.92,4.92,0,0,0-.9,3.15,4.52,4.52,0,0,0,.89,3.07,2.87,2.87,0,0,0,2.27,1,2.78,2.78,0,0,0,1.4-.36,3,3,0,0,0,1-.91,2,2,0,0,0,.36-1.1V85A5.21,5.21,0,0,0,274.58,84.08Z"/><path class="cls-1" d="M283.8,80.51a.46.46,0,0,1-.08.29.34.34,0,0,1-.27.08h-1.14c-.19,0-.29-.11-.29-.33V78.91c0-.21.09-.31.27-.31h1.23a.24.24,0,0,1,.2.08.29.29,0,0,1,.08.21Zm-.08,12.26a.38.38,0,0,1-.08.27.45.45,0,0,1-.27.06h-1c-.12,0-.19,0-.23,0a.3.3,0,0,1-.06-.22V83c0-.19.08-.28.23-.28h1.2c.14,0,.21.09.21.26Z"/><path class="cls-1" d="M295.05,83.21A4.88,4.88,0,0,1,296.66,85l0,.16c0,.08,0,.12-.13.13l-1.08.26-.06,0c-.06,0-.13-.05-.19-.16A5.23,5.23,0,0,0,294,84.15a2.28,2.28,0,0,0-1.32-.39,2.94,2.94,0,0,0-2.42,1.12,4.74,4.74,0,0,0-.9,3,4.66,4.66,0,0,0,.91,3,3,3,0,0,0,2.45,1.12,2.92,2.92,0,0,0,1.62-.45,4.21,4.21,0,0,0,1.26-1.39.2.2,0,0,1,.12-.11l.13,0,.84.31c.09,0,.12.13.08.26a5.1,5.1,0,0,1-1.66,1.85,4.44,4.44,0,0,1-2.52.71,4.86,4.86,0,0,1-2.55-.67,4.68,4.68,0,0,1-1.74-1.89,6.05,6.05,0,0,1-.62-2.78,6.2,6.2,0,0,1,.62-2.8,4.68,4.68,0,0,1,1.75-1.93,4.76,4.76,0,0,1,2.54-.68A4.33,4.33,0,0,1,295.05,83.21Z"/><path class="cls-1" d="M303,93.3a3.51,3.51,0,0,1-2.4-.77,2.62,2.62,0,0,1-.87-2.06A2.83,2.83,0,0,1,301.07,88a7.63,7.63,0,0,1,3.83-1l1.52-.12c.22,0,.33-.13.33-.29V86a2.19,2.19,0,0,0-.65-1.67,2.5,2.5,0,0,0-1.77-.62,3.32,3.32,0,0,0-2.82,1.56.38.38,0,0,1-.11.13.18.18,0,0,1-.16,0l-1.06-.35a.14.14,0,0,1-.09-.14.51.51,0,0,1,.05-.17,4.16,4.16,0,0,1,1.68-1.62,5.45,5.45,0,0,1,2.57-.57,4.3,4.3,0,0,1,2.93.89,3.08,3.08,0,0,1,1,2.45v6.92a.35.35,0,0,1-.06.24s-.11,0-.22,0h-1c-.16,0-.25-.1-.28-.31l0-.9c0-.09,0-.13-.1-.13a.26.26,0,0,0-.17.09A4.84,4.84,0,0,1,303,93.3Zm3.44-5.47-1.27.11a6.43,6.43,0,0,0-2.81.71,1.79,1.79,0,0,0-1,1.62A1.62,1.62,0,0,0,302,91.6a2.43,2.43,0,0,0,1.6.49,3.3,3.3,0,0,0,1.19-.22,3.57,3.57,0,0,0,1-.58,2.9,2.9,0,0,0,.7-.76,1.47,1.47,0,0,0,.24-.77V88.14C306.75,87.93,306.66,87.83,306.46,87.83Z"/><path class="cls-1" d="M0,1.47H10.08V58.86H0Zm209,0h-10.3L179.13,45.89,159,1.47H150.2V58.86h6V14.34l20.41,44.77h1.66l20.66-44.93V58.86H209Zm46.88,4.69V1.47H220.44V58.86h35.41V54.17H230.52V32.1h22.87V27.41H230.52V6.16Zm50,24c0,14.1-7.21,24-23,24h-8.37v-48h8.37c15.82,0,23,9.91,23,24m11.23,0c0-17.55-13.69-28.7-34.26-28.7H264.35V58.86H282.8c20.57,0,34.26-11.15,34.26-28.69m-254.17,0c0,14.1-7.21,24-23,24H31.49v-48h8.36c15.83,0,23,9.91,23,24m11.23,0c0-17.55-13.69-28.7-34.27-28.7H21.41V58.86H39.85c20.58,0,34.27-11.15,34.27-28.69M111.5,0a30.07,30.07,0,0,0-11.1,2.15,1.11,1.11,0,0,0,.53,2.13C122.16,2.06,127.31,14,127.31,14c2.35,4.17,3.63,9.68,3.63,16.33,0,16.07-7.49,25.48-19.44,25.48-10.34,0-17.28-7.06-19-19.38a21.17,21.17,0,0,1,.54-8.78c.26-1.06.5-2.09.59-2.67.62-3.81-.81-7.46-2.56-11.57-.49-1.14-1.27-1.22-2.45-1.3a.63.63,0,0,0-.27,0,1.7,1.7,0,0,0-1.59.8C84,16.66,82,19.52,81.58,23.36a57.28,57.28,0,0,0-.28,6.93A30.25,30.25,0,1,0,111.5,0"/></g></g></svg>