<svg id="icon" width="48" height="48" viewBox="0 0 48 48" fill="none" xmlns="http://www.w3.org/2000/svg">
<path d="M45.6 11.2H36V8.8C36 6.3977 34.716 4.1575 32.3846 2.4922C30.1347 0.8851 27.1569 0 24 0C20.8431 0 17.8653 0.8851 15.6154 2.4922C13.284 4.1575 12 6.3977 12 8.8V11.2H2.4C1.0767 11.2 0 12.4561 0 14V24.8C1.17895e-06 24.984 0.0634483 25.1624 0.179647 25.3051C0.295845 25.4478 0.45769 25.5461 0.6379 25.5834L0.8 25.6169V45.6278C0.800715 46.2567 1.05087 46.8597 1.49559 47.3044C1.94031 47.7491 2.54327 47.9993 3.1722 48H44.8278C45.4567 47.9993 46.0597 47.7491 46.5044 47.3044C46.9491 46.8597 47.1993 46.2567 47.2 45.6278V25.6169L47.3621 25.5834C47.5423 25.5461 47.7042 25.4478 47.8204 25.3051C47.9366 25.1624 48 24.984 48 24.8V14C48 12.4561 46.9233 11.2 45.6 11.2ZM32.8 11.2V9.6H34.4V11.2H32.8ZM16.8 8.8C16.8 6.6317 20.0972 4.8 24 4.8C27.9028 4.8 31.2 6.6317 31.2 8.8V11.2H16.8V8.8ZM24 1.6C29.344 1.6 33.7587 4.405 34.3355 8H32.7128C32.12 5.2521 28.5067 3.2 24 3.2C19.4933 3.2 15.88 5.2521 15.2872 8H13.6645C14.2413 4.405 18.656 1.6 24 1.6ZM13.6 9.6H15.2V11.2H13.6V9.6ZM1.6 14C1.6 13.3607 1.9738 12.8 2.4 12.8H45.6C46.0262 12.8 46.4 13.3607 46.4 14V24.1485L27.9978 27.9559C27.9867 27.7518 27.8978 27.5597 27.7494 27.4191C27.601 27.2785 27.4044 27.2001 27.2 27.2H20.8C20.5956 27.2001 20.399 27.2785 20.2506 27.4191C20.1022 27.5597 20.0133 27.7518 20.0022 27.9559L1.6 24.1485V14ZM21.6 30.4V28.8H26.4V30.4H21.6ZM22.4 32H25.6V33.6H22.4V32ZM45.6 45.6278C45.5998 45.8325 45.5183 46.0288 45.3736 46.1736C45.2288 46.3183 45.0325 46.3998 44.8278 46.4H3.1722C2.96747 46.3998 2.7712 46.3183 2.62644 46.1736C2.48167 46.0288 2.40024 45.8325 2.4 45.6278V25.948L20 29.5893V31.2C20 31.4122 20.0843 31.6157 20.2343 31.7657C20.3843 31.9157 20.5878 32 20.8 32V34.4C20.8 34.6122 20.8843 34.8157 21.0343 34.9657C21.1843 35.1157 21.3878 35.2 21.6 35.2H26.4C26.6122 35.2 26.8157 35.1157 26.9657 34.9657C27.1157 34.8157 27.2 34.6122 27.2 34.4V32C27.4122 32 27.6157 31.9157 27.7657 31.7657C27.9157 31.6157 28 31.4122 28 31.2V29.5893L45.6 25.948V45.6278Z" fill="currentColor"/>
</svg>
