<svg width="188" height="306" viewBox="0 0 188 306" fill="none" xmlns="http://www.w3.org/2000/svg">
<mask id="mask0_2_10322" style="mask-type:alpha" maskUnits="userSpaceOnUse" x="-118" y="0" width="306" height="306">
<circle cx="35" cy="153" r="153" fill="#C4C4C4"/>
</mask>
<g mask="url(#mask0_2_10322)">
<path d="M48.4082 53.9213C45.951 53.9213 44.108 52.081 44.108 49.6273C44.108 47.1736 46.2581 45.3334 48.4082 45.3334C50.8654 45.3334 52.7083 47.1736 52.7083 49.6273C52.7083 52.081 50.8654 53.9213 48.4082 53.9213Z" fill="#D6196A"/>
<path d="M48.4082 19.2129C45.951 19.2129 44.108 17.3726 44.108 14.919C44.108 12.4653 46.2581 10.625 48.4082 10.625C50.8654 10.625 52.7083 12.4653 52.7083 14.919C52.7083 17.3726 50.8654 19.2129 48.4082 19.2129Z" fill="#D6196A"/>
<path d="M48.4082 297.588C45.951 297.588 44.108 295.748 44.108 293.294C44.108 290.84 46.2581 289 48.4082 289C50.8654 289 52.7083 290.84 52.7083 293.294C52.7083 295.748 50.8654 297.588 48.4082 297.588Z" fill="#D6196A"/>
<path d="M175.908 53.9213C173.451 53.9213 171.608 52.081 171.608 49.6273C171.608 47.1736 173.758 45.3334 175.908 45.3334C178.365 45.3334 180.208 47.1736 180.208 49.6273C180.208 52.081 178.365 53.9213 175.908 53.9213Z" fill="#D6196A"/>
<path d="M175.908 19.2129C173.451 19.2129 171.608 17.3726 171.608 14.919C171.608 12.4653 173.758 10.625 175.908 10.625C178.365 10.625 180.208 12.4653 180.208 14.919C180.208 17.3726 178.365 19.2129 175.908 19.2129Z" fill="#D6196A"/>
<path d="M175.908 297.588C173.451 297.588 171.608 295.748 171.608 293.294C171.608 290.84 173.758 289 175.908 289C178.365 289 180.208 290.84 180.208 293.294C180.208 295.748 178.365 297.588 175.908 297.588Z" fill="#D6196A"/>
<path d="M48.4082 88.5791C45.951 88.5791 44.108 86.7389 44.108 84.2852C44.108 81.8315 45.951 79.9912 48.4082 79.9912C50.8654 79.9912 52.7083 81.8315 52.7083 84.2852C52.7083 86.7389 50.8654 88.5791 48.4082 88.5791Z" fill="#D6196A"/>
<path d="M175.908 88.5791C173.451 88.5791 171.608 86.7389 171.608 84.2852C171.608 81.8315 173.451 79.9912 175.908 79.9912C178.365 79.9912 180.208 81.8315 180.208 84.2852C180.208 86.7389 178.365 88.5791 175.908 88.5791Z" fill="#D6196A"/>
<path d="M48.4082 123.545C45.951 123.545 44.108 121.705 44.108 119.251C44.108 116.797 45.951 114.957 48.4082 114.957C50.8654 114.957 52.7083 116.797 52.7083 119.251C52.7083 121.705 50.8654 123.545 48.4082 123.545Z" fill="#D6196A"/>
<path d="M175.908 123.545C173.451 123.545 171.608 121.705 171.608 119.251C171.608 116.797 173.451 114.957 175.908 114.957C178.365 114.957 180.208 116.797 180.208 119.251C180.208 121.705 178.365 123.545 175.908 123.545Z" fill="#D6196A"/>
<path d="M48.4082 158.203C45.951 158.203 44.108 156.363 44.108 153.909C44.108 151.456 45.951 149.615 48.4082 149.615C50.8654 149.615 52.7083 151.456 52.7083 153.909C52.7083 156.363 50.8654 158.203 48.4082 158.203Z" fill="#D6196A"/>
<path d="M175.908 158.203C173.451 158.203 171.608 156.363 171.608 153.909C171.608 151.456 173.451 149.615 175.908 149.615C178.365 149.615 180.208 151.456 180.208 153.909C180.208 156.363 178.365 158.203 175.908 158.203Z" fill="#D6196A"/>
<path d="M48.4082 193.168C45.951 193.168 44.108 191.328 44.108 188.874C44.108 186.42 45.951 184.58 48.4082 184.58C50.8654 184.58 52.7083 186.42 52.7083 188.874C52.7083 191.328 50.8654 193.168 48.4082 193.168Z" fill="#D6196A"/>
<path d="M175.908 193.168C173.451 193.168 171.608 191.328 171.608 188.874C171.608 186.42 173.451 184.58 175.908 184.58C178.365 184.58 180.208 186.42 180.208 188.874C180.208 191.328 178.365 193.168 175.908 193.168Z" fill="#D6196A"/>
<path d="M48.4082 227.827C45.951 227.827 44.108 225.987 44.108 223.533C44.108 221.08 45.951 219.239 48.4082 219.239C50.8654 219.239 52.7083 221.08 52.7083 223.533C52.7083 225.987 50.8654 227.827 48.4082 227.827Z" fill="#D6196A"/>
<path d="M175.908 227.827C173.451 227.827 171.608 225.987 171.608 223.533C171.608 221.08 173.451 219.239 175.908 219.239C178.365 219.239 180.208 221.08 180.208 223.533C180.208 225.987 178.365 227.827 175.908 227.827Z" fill="#D6196A"/>
<path d="M48.4082 262.792C45.951 262.792 44.108 260.952 44.108 258.498C44.108 256.044 45.951 254.204 48.4082 254.204C50.8654 254.204 52.7083 256.044 52.7083 258.498C52.7083 260.952 50.8654 262.792 48.4082 262.792Z" fill="#D6196A"/>
<path d="M175.908 262.792C173.451 262.792 171.608 260.952 171.608 258.498C171.608 256.044 173.451 254.204 175.908 254.204C178.365 254.204 180.208 256.044 180.208 258.498C180.208 260.952 178.365 262.792 175.908 262.792Z" fill="#D6196A"/>
<path d="M16.7698 53.9213C14.3125 53.9213 12.4696 52.081 12.4696 49.6273C12.4696 47.1736 14.3125 45.3334 16.7698 45.3334C19.227 45.3334 21.0699 47.1736 21.0699 49.6273C21.0699 52.081 18.9198 53.9213 16.7698 53.9213Z" fill="#D6196A"/>
<path d="M16.7698 19.2129C14.3125 19.2129 12.4696 17.3726 12.4696 14.919C12.4696 12.4653 14.3125 10.625 16.7698 10.625C19.227 10.625 21.0699 12.4653 21.0699 14.919C21.0699 17.3726 18.9198 19.2129 16.7698 19.2129Z" fill="#D6196A"/>
<path d="M16.7698 297.588C14.3125 297.588 12.4696 295.748 12.4696 293.294C12.4696 290.84 14.3125 289 16.7698 289C19.227 289 21.0699 290.84 21.0699 293.294C21.0699 295.748 18.9198 297.588 16.7698 297.588Z" fill="#D6196A"/>
<path d="M144.27 53.9213C141.813 53.9213 139.97 52.081 139.97 49.6273C139.97 47.1736 141.813 45.3334 144.27 45.3334C146.727 45.3334 148.57 47.1736 148.57 49.6273C148.57 52.081 146.42 53.9213 144.27 53.9213Z" fill="#D6196A"/>
<path d="M144.27 19.2129C141.813 19.2129 139.97 17.3726 139.97 14.919C139.97 12.4653 141.813 10.625 144.27 10.625C146.727 10.625 148.57 12.4653 148.57 14.919C148.57 17.3726 146.42 19.2129 144.27 19.2129Z" fill="#D6196A"/>
<path d="M144.27 297.588C141.813 297.588 139.97 295.748 139.97 293.294C139.97 290.84 141.813 289 144.27 289C146.727 289 148.57 290.84 148.57 293.294C148.57 295.748 146.42 297.588 144.27 297.588Z" fill="#D6196A"/>
<path d="M16.7698 88.5791C14.3125 88.5791 12.4696 86.7389 12.4696 84.2852C12.4696 81.8315 14.3125 79.9912 16.7698 79.9912C19.227 79.9912 21.0699 81.8315 21.0699 84.2852C20.7628 86.7389 18.9198 88.5791 16.7698 88.5791Z" fill="#D6196A"/>
<path d="M144.27 88.5791C141.813 88.5791 139.97 86.7389 139.97 84.2852C139.97 81.8315 141.813 79.9912 144.27 79.9912C146.727 79.9912 148.57 81.8315 148.57 84.2852C148.263 86.7389 146.42 88.5791 144.27 88.5791Z" fill="#D6196A"/>
<path d="M16.7698 123.545C14.3125 123.545 12.4696 121.705 12.4696 119.251C12.4696 116.797 14.3125 114.957 16.7698 114.957C19.227 114.957 21.0699 116.797 21.0699 119.251C21.0699 121.705 18.9198 123.545 16.7698 123.545Z" fill="#D6196A"/>
<path d="M144.27 123.545C141.813 123.545 139.97 121.705 139.97 119.251C139.97 116.797 141.813 114.957 144.27 114.957C146.727 114.957 148.57 116.797 148.57 119.251C148.57 121.705 146.42 123.545 144.27 123.545Z" fill="#D6196A"/>
<path d="M16.7698 158.203C14.3125 158.203 12.4696 156.363 12.4696 153.909C12.4696 151.456 14.3125 149.615 16.7698 149.615C19.227 149.615 21.0699 151.456 21.0699 153.909C20.7628 156.363 18.9198 158.203 16.7698 158.203Z" fill="#D6196A"/>
<path d="M144.27 158.203C141.813 158.203 139.97 156.363 139.97 153.909C139.97 151.456 141.813 149.615 144.27 149.615C146.727 149.615 148.57 151.456 148.57 153.909C148.263 156.363 146.42 158.203 144.27 158.203Z" fill="#D6196A"/>
<path d="M16.7698 193.168C14.3125 193.168 12.4696 191.328 12.4696 188.874C12.4696 186.42 14.3125 184.58 16.7698 184.58C19.227 184.58 21.0699 186.42 21.0699 188.874C20.7628 191.328 18.9198 193.168 16.7698 193.168Z" fill="#D6196A"/>
<path d="M144.27 193.168C141.813 193.168 139.97 191.328 139.97 188.874C139.97 186.42 141.813 184.58 144.27 184.58C146.727 184.58 148.57 186.42 148.57 188.874C148.263 191.328 146.42 193.168 144.27 193.168Z" fill="#D6196A"/>
<path d="M16.7698 227.827C14.3125 227.827 12.4696 225.987 12.4696 223.533C12.4696 221.08 14.3125 219.239 16.7698 219.239C19.227 219.239 21.0699 221.08 21.0699 223.533C21.0699 225.987 18.9198 227.827 16.7698 227.827Z" fill="#D6196A"/>
<path d="M144.27 227.827C141.813 227.827 139.97 225.987 139.97 223.533C139.97 221.08 141.813 219.239 144.27 219.239C146.727 219.239 148.57 221.08 148.57 223.533C148.57 225.987 146.42 227.827 144.27 227.827Z" fill="#D6196A"/>
<path d="M16.7698 262.792C14.3125 262.792 12.4696 260.952 12.4696 258.498C12.4696 256.044 14.3125 254.204 16.7698 254.204C19.227 254.204 21.0699 256.044 21.0699 258.498C21.0699 260.952 18.9198 262.792 16.7698 262.792Z" fill="#D6196A"/>
<path d="M144.27 262.792C141.813 262.792 139.97 260.952 139.97 258.498C139.97 256.044 141.813 254.204 144.27 254.204C146.727 254.204 148.57 256.044 148.57 258.498C148.57 260.952 146.42 262.792 144.27 262.792Z" fill="#D6196A"/>
<path d="M112.327 53.9213C109.87 53.9213 108.027 52.081 108.027 49.6273C108.027 47.1736 109.87 45.3334 112.327 45.3334C114.784 45.3334 116.627 47.1736 116.627 49.6273C116.627 52.081 114.477 53.9213 112.327 53.9213Z" fill="#D6196A"/>
<path d="M112.327 19.2129C109.87 19.2129 108.027 17.3726 108.027 14.919C108.027 12.4653 109.87 10.625 112.327 10.625C114.784 10.625 116.627 12.4653 116.627 14.919C116.627 17.3726 114.477 19.2129 112.327 19.2129Z" fill="#D6196A"/>
<path d="M112.327 297.588C109.87 297.588 108.027 295.748 108.027 293.294C108.027 290.84 109.87 289 112.327 289C114.784 289 116.627 290.84 116.627 293.294C116.627 295.748 114.477 297.588 112.327 297.588Z" fill="#D6196A"/>
<path d="M112.327 88.5791C114.702 88.5791 116.627 86.6567 116.627 84.2852C116.627 81.9137 114.702 79.9912 112.327 79.9912C109.952 79.9912 108.027 81.9137 108.027 84.2852C108.027 86.6567 109.952 88.5791 112.327 88.5791Z" fill="#D6196A"/>
<path d="M112.327 123.545C114.702 123.545 116.627 121.623 116.627 119.251C116.627 116.88 114.702 114.957 112.327 114.957C109.952 114.957 108.027 116.88 108.027 119.251C108.027 121.623 109.952 123.545 112.327 123.545Z" fill="#D6196A"/>
<path d="M112.327 158.203C114.702 158.203 116.627 156.281 116.627 153.909C116.627 151.538 114.702 149.615 112.327 149.615C109.952 149.615 108.027 151.538 108.027 153.909C108.027 156.281 109.952 158.203 112.327 158.203Z" fill="#D6196A"/>
<path d="M112.327 193.168C109.87 193.168 108.027 191.328 108.027 188.874C108.027 186.42 109.87 184.58 112.327 184.58C114.784 184.58 116.627 186.42 116.627 188.874C116.32 191.328 114.477 193.168 112.327 193.168Z" fill="#D6196A"/>
<path d="M112.327 227.827C109.87 227.827 108.027 225.987 108.027 223.533C108.027 221.08 109.87 219.239 112.327 219.239C114.784 219.239 116.627 221.08 116.627 223.533C116.627 225.987 114.477 227.827 112.327 227.827Z" fill="#D6196A"/>
<path d="M112.327 262.792C109.87 262.792 108.027 260.952 108.027 258.498C108.027 256.044 109.87 254.204 112.327 254.204C114.784 254.204 116.627 256.044 116.627 258.498C116.627 260.952 114.477 262.792 112.327 262.792Z" fill="#D6196A"/>
<path d="M80.3828 53.9213C77.9256 53.9213 76.0826 51.7743 76.0826 49.6273C76.0826 47.4804 77.9256 45.3334 80.3828 45.3334C82.84 45.3334 84.6829 47.1736 84.6829 49.6273C84.6829 52.081 82.5329 53.9213 80.3828 53.9213Z" fill="#D6196A"/>
<path d="M80.3828 19.2129C77.9256 19.2129 76.0826 17.0659 76.0826 14.919C76.0826 12.772 77.9256 10.625 80.3828 10.625C82.84 10.625 84.6829 12.4653 84.6829 14.919C84.6829 17.3726 82.5329 19.2129 80.3828 19.2129Z" fill="#D6196A"/>
<path d="M80.3828 297.588C77.9256 297.588 76.0826 295.441 76.0826 293.294C76.0826 291.147 77.9256 289 80.3828 289C82.84 289 84.6829 290.84 84.6829 293.294C84.6829 295.748 82.5329 297.588 80.3828 297.588Z" fill="#D6196A"/>
<path d="M80.3828 88.5791C77.9256 88.5791 76.0826 86.7389 76.0826 84.2852C76.0826 81.8315 77.9256 79.9912 80.3828 79.9912C82.84 79.9912 84.6829 81.8315 84.6829 84.2852C84.6829 86.7389 82.5329 88.5791 80.3828 88.5791Z" fill="#D6196A"/>
<path d="M80.3828 123.545C77.9256 123.545 76.0826 121.705 76.0826 119.251C76.0826 116.797 77.9256 114.957 80.3828 114.957C82.84 114.957 84.6829 116.797 84.6829 119.251C84.6829 121.705 82.5329 123.545 80.3828 123.545Z" fill="#D6196A"/>
<path d="M80.3828 158.203C77.9256 158.203 76.0826 156.363 76.0826 153.909C76.0826 151.456 77.9256 149.615 80.3828 149.615C82.84 149.615 84.6829 151.456 84.6829 153.909C84.6829 156.363 82.5329 158.203 80.3828 158.203Z" fill="#D6196A"/>
<path d="M80.3828 193.168C77.9256 193.168 76.0826 191.328 76.0826 188.874C76.0826 186.42 77.9256 184.58 80.3828 184.58C82.84 184.58 84.6829 186.42 84.6829 188.874C84.6829 191.328 82.5329 193.168 80.3828 193.168Z" fill="#D6196A"/>
<path d="M80.3828 227.827C77.9256 227.827 76.0826 225.987 76.0826 223.533C76.0826 221.08 77.9256 219.239 80.3828 219.239C82.84 219.239 84.6829 221.08 84.6829 223.533C84.6829 225.987 82.5329 227.827 80.3828 227.827Z" fill="#D6196A"/>
<path d="M80.3828 262.792C77.9256 262.792 76.0826 260.952 76.0826 258.498C76.0826 256.044 77.9256 254.204 80.3828 254.204C82.84 254.204 84.6829 256.044 84.6829 258.498C84.6829 260.952 82.5329 262.792 80.3828 262.792Z" fill="#D6196A"/>
</g>
</svg>
