<svg id="icon" width="56" height="49" viewBox="0 0 56 49" fill="none" xmlns="http://www.w3.org/2000/svg">
<path d="M31.3945 0C26.0033 0 20.906 1.71 16.6228 4.95411C12.8111 7.83917 9.88437 11.8521 8.29586 16.3293L8.0837 16.9314H0.801231C0.175621 16.9314 -0.187052 17.5262 0.0994596 18.0792L3.00809 23.7079H0.801231C0.355144 23.7079 0.0142317 24.047 0.0142317 24.4949C0.0142317 24.9428 0.35333 25.2819 0.801231 25.2819H3.01172L0.101273 30.907C-0.187052 31.4655 0.179248 32.0548 0.803045 32.0548H8.08551L8.29767 32.6569C9.88618 37.1377 12.8148 41.1525 16.6246 44.0357C20.9096 47.2798 26.0088 48.9862 31.3963 48.9862C44.9748 48.9862 56 38.0063 56 24.4949C56 10.9835 44.9748 0 31.3963 0H31.3945ZM31.3945 1.57219C44.0844 1.57219 54.426 11.8576 54.426 24.4913C54.426 37.125 44.0844 47.414 31.3945 47.414H30.4878V47.2726C21.6005 46.9044 13.6362 41.4444 10.2325 33.3115L9.70484 32.0548H11.0757C11.3731 32.0548 11.6433 31.8898 11.7775 31.6232V31.6196L13.7994 27.5812L14.4685 29.7355C16.7062 36.9527 23.4393 42.2133 31.3945 42.2133C41.1739 42.2133 49.1128 34.2726 49.1128 24.4949C49.1128 14.7173 41.1721 6.77654 31.3945 6.77654C23.4411 6.77654 16.7062 12.0407 14.4685 19.2579L13.7994 21.4122L11.7775 17.3738V17.3702C11.6433 17.1018 11.3768 16.9386 11.0757 16.9386H9.70484L10.2325 15.682C13.7541 7.26433 22.13 1.57944 31.3945 1.57944V1.57219ZM31.3909 8.34872C40.2854 8.34872 47.537 15.6004 47.537 24.4949C47.537 33.3895 40.2854 40.6411 31.3909 40.6411C23.102 40.6411 16.242 34.3487 15.3462 26.2865L15.2338 25.2801H20.4472L20.5578 26.0598C21.3194 31.3567 25.8837 35.4422 31.3963 35.4422C37.442 35.4422 42.3436 30.5407 42.3436 24.4949C42.3436 18.4492 37.4402 13.5476 31.3963 13.5476C25.8819 13.5476 21.3194 17.635 20.5578 22.93L20.4472 23.7097H15.2338L15.3462 22.7033C16.242 14.6411 23.102 8.34872 31.3909 8.34872ZM31.3945 15.1198C36.5535 15.1198 40.7659 19.3359 40.7659 24.4949C40.7659 29.6539 36.5535 33.8664 31.3945 33.8664C26.8756 33.8664 23.0784 30.6458 22.208 26.3681L21.9886 25.2801H27.2473L27.4595 25.8821C28.0343 27.4997 29.5757 28.6656 31.3945 28.6656C33.7029 28.6656 35.567 26.8015 35.567 24.4931C35.567 22.1847 33.7047 20.3205 31.3945 20.3205C29.5739 20.3205 28.0325 21.4847 27.4595 23.1004L27.2473 23.7061H21.9886L22.208 22.6181C23.0802 18.3404 26.8756 15.1162 31.3945 15.1162V15.1198ZM2.09416 18.509H10.588L13.1883 23.7079H4.77975L2.7778 19.8328L2.09416 18.509ZM31.3945 21.8945C32.8198 21.8945 33.9948 23.0696 33.9948 24.4949C33.9948 25.9202 32.8198 27.0953 31.3945 27.0953C29.9692 27.0953 28.7941 25.9202 28.7941 24.4949C28.7941 23.0696 29.9692 21.8945 31.3945 21.8945ZM4.77975 25.2783H13.1883L10.588 30.4808H2.09416L4.52769 25.7697L4.77975 25.2783Z" fill="currentColor"/>
</svg>
