<svg width="175" height="166" viewBox="0 0 175 166" fill="none" xmlns="http://www.w3.org/2000/svg">
<path class="move-1" d="M71.0029 64.4631C73.9535 65.3206 74.8541 69.065 72.6233 71.2007L50.8784 92.0182C48.649 94.1524 44.9639 93.0792 44.2441 90.086L37.2271 60.9097C36.5072 57.9165 39.2923 55.2473 42.241 56.1043L71.0029 64.4631Z" fill="#2CA8FF"/>
<path class="move-1" d="M66.664 122.187C63.9918 123.737 60.6448 121.807 60.6534 118.721L60.6895 105.764C60.698 102.691 64.0297 100.774 66.6934 102.31L77.8745 108.757C80.5382 110.293 80.5419 114.133 77.8812 115.677L66.664 122.187Z" fill="#EA5B0C"/>
<path class="move-2" d="M110.575 49.2041C113.639 49.4924 115.227 53.0062 113.432 55.5216L105.889 66.0877C104.097 68.5974 100.278 68.2306 99.0099 65.4269L93.6847 53.6497C92.417 50.8461 94.6502 47.7052 97.7069 47.9929L110.575 49.2041Z" fill="#EA5B0C"/>
<path class="move-3" d="M129.739 83.3924C132.815 83.2154 134.917 86.4521 133.518 89.2083L115.09 125.496C113.695 128.244 109.864 128.453 108.188 125.874L86.1237 91.915C84.4479 89.3358 86.1816 85.8979 89.2471 85.7216L129.739 83.3924Z" fill="#2CA8FF"/>
<style>
.move-1{
    animation: move-1 2s ease-in-out alternate infinite 
}
.move-2{
    animation: move-2 2s ease-in-out alternate infinite 
}
.move-3{
    animation: move-3 2s ease-in-out alternate infinite 
}

@keyframes move-1{
    to{
        translate: 3% -3%;
    }
}
@keyframes move-2{
    to{
        translate: -3% 3%;
    }
}
@keyframes move-3{
    to{
        translate: 3% 3%;
    }
}
</style>
</svg>
