<svg width="305" height="307" viewBox="0 0 305 307" fill="none" xmlns="http://www.w3.org/2000/svg">
<path class="move-1" d="M185.344 73.1208C188.422 73.1098 190.354 76.4392 188.822 79.1132L160.167 129.132C158.636 131.806 154.79 131.819 153.244 129.156L124.331 79.3415C122.786 76.6785 124.7 73.3364 127.777 73.3255L185.344 73.1208Z" fill="#2CA8FF"/>
<path class="move-2" d="M94.8225 54.5788C92.7018 56.8151 88.9555 55.9153 88.0833 52.9601L79.642 24.3585C78.7708 21.4068 81.4212 18.6176 84.414 19.3364L113.381 26.2937C116.374 27.0126 117.466 30.7007 115.348 32.9344L94.8225 54.5788Z" fill="#F03C1F"/>
<path class="move-3" d="M135.898 168.499C138.92 167.912 141.442 170.822 140.437 173.735L130.704 201.94C129.7 204.852 125.924 205.584 123.908 203.258L104.386 180.741C102.369 178.414 103.623 174.774 106.643 174.187L135.898 168.499Z" fill="#F03C1F"/>
<path class="move-3" d="M188.247 182.644C190.023 180.124 193.86 180.473 195.149 183.27L226.468 251.208C227.756 254.003 225.536 257.146 222.47 256.868L148.021 250.112C144.956 249.834 143.342 246.343 145.117 243.826L188.247 182.644Z" fill="white"/>
<style>
.move-1{
    animation: move-1 2s ease-in-out alternate infinite 
}
.move-2{
    animation: move-2 2s ease-in-out alternate infinite 
}
.move-3{
    animation: move-3 2s ease-in-out alternate infinite 
}

@keyframes move-1{
    to{
        translate: 3% -3%;
    }
}
@keyframes move-2{
    to{
        translate: -3% 3%;
    }
}
@keyframes move-3{
    to{
        translate: 3% 3%;
    }
}
</style>
</svg>
