<svg id="icon" width="73" height="72" viewBox="0 0 73 72" fill="none" xmlns="http://www.w3.org/2000/svg">
<path d="M48.2692 49.6953V47.7932C48.2692 44.0193 40.3129 42.0867 36.0756 42.0867C31.8384 42.0867 23.8821 44.0193 23.8821 47.7932V49.6953" stroke="currentColor" stroke-width="2" stroke-miterlimit="10" stroke-linecap="round" stroke-linejoin="round"/>
<path d="M36.0752 37.5218C39.6266 37.5218 42.172 35.0414 42.172 31.4349V28.3914C42.172 24.7849 39.6266 22.3044 36.0752 22.3044C32.5239 22.3044 29.9785 24.7849 29.9785 28.3914V31.4349C29.9785 35.0414 32.5239 37.5218 36.0752 37.5218Z" stroke="currentColor" stroke-width="2" stroke-miterlimit="10" stroke-linecap="round" stroke-linejoin="round"/>
<path d="M36.0756 57.304C47.8606 57.304 57.4143 47.7658 57.4143 35.9997C57.4143 24.2337 47.8606 14.6954 36.0756 14.6954C24.2905 14.6954 14.7369 24.2337 14.7369 35.9997C14.7369 47.7658 24.2905 57.304 36.0756 57.304Z" stroke="currentColor" stroke-width="2" stroke-miterlimit="10" stroke-linecap="round" stroke-linejoin="round"/>
<path d="M36.0755 11.6521V1" stroke="currentColor" stroke-width="2" stroke-miterlimit="10" stroke-linecap="round" stroke-linejoin="round"/>
<path d="M42.172 7.08694L36.0752 1L29.9785 7.08694" stroke="currentColor" stroke-width="2" stroke-miterlimit="10" stroke-linecap="round" stroke-linejoin="round"/>
<path d="M36.0755 60.3475V70.9997" stroke="currentColor" stroke-width="2" stroke-miterlimit="10" stroke-linecap="round" stroke-linejoin="round"/>
<path d="M42.172 64.9131L36.0752 71L29.9785 64.9131" stroke="currentColor" stroke-width="2" stroke-miterlimit="10" stroke-linecap="round" stroke-linejoin="round"/>
<path d="M11.6884 35.9999H1.01904" stroke="currentColor" stroke-width="2" stroke-miterlimit="10" stroke-linecap="round" stroke-linejoin="round"/>
<path d="M7.11582 42.0867L1.01904 35.9998L7.11582 29.9128" stroke="currentColor" stroke-width="2" stroke-miterlimit="10" stroke-linecap="round" stroke-linejoin="round"/>
<path d="M60.4623 35.9999H71.1317" stroke="currentColor" stroke-width="2" stroke-miterlimit="10" stroke-linecap="round" stroke-linejoin="round"/>
<path d="M65.0349 42.0867L71.1317 35.9998L65.0349 29.9128" stroke="currentColor" stroke-width="2" stroke-miterlimit="10" stroke-linecap="round" stroke-linejoin="round"/>
<path d="M17.7852 17.7389L10.1642 10.1302" stroke="currentColor" stroke-width="2" stroke-miterlimit="10" stroke-linecap="round" stroke-linejoin="round"/>
<path d="M10.1642 17.7389V10.1302H17.7852" stroke="currentColor" stroke-width="2" stroke-miterlimit="10" stroke-linecap="round" stroke-linejoin="round"/>
<path d="M54.366 17.7389L61.9869 10.1302" stroke="currentColor" stroke-width="2" stroke-miterlimit="10" stroke-linecap="round" stroke-linejoin="round"/>
<path d="M61.9869 17.7389V10.1302H54.366" stroke="currentColor" stroke-width="2" stroke-miterlimit="10" stroke-linecap="round" stroke-linejoin="round"/>
<path d="M17.7852 54.2609L10.1642 61.8695" stroke="currentColor" stroke-width="2" stroke-miterlimit="10" stroke-linecap="round" stroke-linejoin="round"/>
<path d="M10.1642 54.2609V61.8695H17.7852" stroke="currentColor" stroke-width="2" stroke-miterlimit="10" stroke-linecap="round" stroke-linejoin="round"/>
<path d="M54.366 54.2609L61.9869 61.8695" stroke="currentColor" stroke-width="2" stroke-miterlimit="10" stroke-linecap="round" stroke-linejoin="round"/>
<path d="M61.9869 54.2609V61.8695H54.366" stroke="currentColor" stroke-width="2" stroke-miterlimit="10" stroke-linecap="round" stroke-linejoin="round"/>
</svg>
