<svg id="icon" width="72" height="72" viewBox="0 0 72 72" fill="none" xmlns="http://www.w3.org/2000/svg">
<path d="M62.4615 52.8489V50.3498C62.4481 49.8999 62.1799 49.4949 61.7604 49.2934L56.8894 47.022C57.2246 46.6655 57.5713 46.2194 57.9371 45.6837C58.4026 45.0081 58.6439 44.213 58.6439 43.403V41.9285C58.6439 37.6395 51.346 37.6395 51.346 41.9285V43.3993C51.346 44.213 51.5931 45.0118 52.0605 45.6893C52.4321 46.2287 52.7826 46.6748 53.1197 47.0313L48.2774 49.2728C47.8349 49.4837 47.561 49.9223 47.5725 50.3964V52.8489H43.7627V50.3498C43.7492 49.8999 43.4811 49.4949 43.0616 49.2934L38.1906 47.022C38.5258 46.6655 38.8725 46.2194 39.2383 45.6837C39.7038 45.0081 39.9451 44.213 39.9451 43.403V41.9285C39.9451 37.6395 32.6472 37.6395 32.6472 41.9285V43.3993C32.6472 44.213 32.8943 45.0118 33.3616 45.6893C33.7332 46.2287 34.0838 46.6748 34.4209 47.0313L29.5786 49.2728C29.1361 49.4837 28.8622 49.9223 28.8737 50.3964V52.8489H25.0657V50.3964C25.0792 49.9223 24.8033 49.4837 24.3609 49.2728L19.5185 47.0313C19.8557 46.6748 20.2062 46.2269 20.5778 45.6893C21.0452 45.0118 21.2923 44.213 21.2923 43.3993V41.9285C21.2923 37.6395 13.9943 37.6395 13.9943 41.9285V43.403C13.9943 44.213 14.2376 45.0062 14.7011 45.6837C15.0689 46.2194 15.4156 46.6655 15.7508 47.022L10.8798 49.2934C10.4603 49.4949 10.1921 49.8999 10.1787 50.3498V52.8489" stroke="currentColor" stroke-width="2" stroke-miterlimit="10" stroke-linecap="square" stroke-linejoin="round"/>
<path d="M62.4615 66.9859V64.2945C62.4481 63.8101 62.1799 63.374 61.7604 63.1569L56.8894 60.7108C57.2246 60.3269 57.5713 59.8465 57.9371 59.2696C58.4026 58.54 58.6439 57.6857 58.6439 56.8134V55.2255C58.6439 50.6066 51.346 50.6066 51.346 55.2255V56.8094C51.346 57.6857 51.5931 58.546 52.0605 59.2756C52.4321 59.8565 52.7826 60.3369 53.1197 60.7208L48.2774 63.1348C47.8349 63.3619 47.561 63.8343 47.5725 64.3448V66.9859H43.7627V64.2945C43.7492 63.8101 43.4811 63.374 43.0616 63.1569L38.1906 60.7108C38.5258 60.3269 38.8725 59.8465 39.2383 59.2696C39.7038 58.54 39.9451 57.6857 39.9451 56.8134V55.2255C39.9451 50.6066 32.6472 50.6066 32.6472 55.2255V56.8094C32.6472 57.6857 32.8943 58.546 33.3616 59.2756C33.7332 59.8565 34.0838 60.3369 34.4209 60.7208L29.5786 63.1348C29.1361 63.3619 28.8622 63.8343 28.8737 64.3448V66.9859H25.0657V64.3448C25.0792 63.8343 24.8033 63.3619 24.3609 63.1348L19.5185 60.7208C19.8557 60.3369 20.2062 59.8545 20.5778 59.2756C21.0452 58.546 21.2923 57.6857 21.2923 56.8094V55.2255C21.2923 50.6066 13.9943 50.6066 13.9943 55.2255V56.8134C13.9943 57.6857 14.2376 58.54 14.7011 59.2696C15.0689 59.8465 15.4156 60.3269 15.7508 60.7108L10.8798 63.1569C10.4603 63.374 10.1921 63.8101 10.1787 64.2945V66.9859" stroke="currentColor" stroke-width="2" stroke-miterlimit="10" stroke-linecap="square" stroke-linejoin="round"/>
<path d="M63.5504 5.00024H8V33.2744H63.5504V5.00024Z" stroke="currentColor" stroke-width="2" stroke-miterlimit="10" stroke-linecap="square" stroke-linejoin="round"/>
<path d="M39.588 18.5932L31.9634 13.6996V23.4868L39.588 18.5932Z" stroke="currentColor" stroke-width="2" stroke-miterlimit="10" stroke-linecap="square" stroke-linejoin="round"/>
</svg>
