<svg id="icon" width="72" height="72" viewBox="0 0 72 72" fill="none" xmlns="http://www.w3.org/2000/svg">
<path d="M23.3339 55.3273H3V60.7545C3 62.5755 4.45777 64.0519 6.25657 64.0519H27.4786" stroke="currentColor" stroke-width="1.8" stroke-miterlimit="10" stroke-linejoin="round"/>
<path d="M51.4721 55.3273H68.1391V60.7545C68.1391 62.5755 66.6813 64.0519 64.8825 64.0519H50.5146" stroke="currentColor" stroke-width="1.8" stroke-miterlimit="10" stroke-linejoin="round"/>
<path d="M50.3291 10.7363H59.4524C61.2512 10.7363 62.7089 12.2127 62.7089 14.0337V52.2351" stroke="currentColor" stroke-width="1.8" stroke-miterlimit="10" stroke-linejoin="round"/>
<path d="M8.42822 52.237V14.0337C8.42822 12.2108 9.88599 10.7363 11.6848 10.7363H20.8137" stroke="currentColor" stroke-width="1.8" stroke-miterlimit="10" stroke-linejoin="round"/>
<path d="M11.3422 59.3796C11.3422 59.5886 11.1757 59.7562 10.9699 59.7562C10.7642 59.7562 10.5977 59.5867 10.5977 59.3796C10.5977 59.1705 10.7642 59.0029 10.9699 59.0029C11.1757 59.0029 11.3422 59.1705 11.3422 59.3796Z" stroke="currentColor" stroke-width="1.8" stroke-miterlimit="10" stroke-linecap="round" stroke-linejoin="round"/>
<path d="M35.8054 48.7716C35.7829 44.5514 35.738 35.3278 35.738 35.3278C35.723 32.6104 30.8681 32.6387 30.8831 35.356L30.9805 52.9164C29.1592 50.312 27.6696 48.2236 25.4998 46.8658C23.9128 45.8715 21.8516 48.3365 22.8766 49.9485C26.9389 55.4812 29 59.7126 31.4096 67.4674C31.8462 68.8703 31.8087 71.0002 31.8087 71.0002L45.8637 70.9192C45.8637 70.9192 45.8824 68.731 46.1766 67.3827C46.4689 66.0343 47.8105 64.976 48.1496 62.3999C48.8972 56.7259 49.3338 50.3986 48.0822 48.6397C47.1228 47.2895 46.096 47.3987 44.6307 48.0465L44.6551 51.8957L44.6214 46.3178C44.6101 44.3631 40.3623 44.2671 40.3717 45.9694L40.3567 43.2426C40.3155 41.1844 35.8035 41.0356 35.7829 43.0619" stroke="currentColor" stroke-width="1.8" stroke-miterlimit="10" stroke-linecap="round" stroke-linejoin="round"/>
<path d="M40.3696 45.9677L40.3921 50.378" stroke="currentColor" stroke-width="1.8" stroke-miterlimit="10" stroke-linecap="round" stroke-linejoin="round"/>
<path d="M20.8159 3.56104V4.08267V10.7358V35.3541C20.8159 36.8362 22.002 38.0376 23.4691 38.0376H24.8595H30.9004" stroke="currentColor" stroke-width="1.8" stroke-miterlimit="10" stroke-linecap="round" stroke-linejoin="round"/>
<path d="M35.7529 38.0399H50.3288V10.7362V6.64038" stroke="currentColor" stroke-width="1.8" stroke-miterlimit="10" stroke-linecap="round" stroke-linejoin="round"/>
<path d="M50.3325 1.00024C40.8289 1.00024 32.5451 1.00024 23.0396 1.00024C20.0604 1.67441 20.0604 5.96798 23.0396 6.64026C32.5432 6.64026 40.8271 6.64026 50.3325 6.64026C47.3533 5.96798 47.3533 1.67441 50.3325 1.00024Z" stroke="currentColor" stroke-width="1.8" stroke-miterlimit="10" stroke-linecap="round" stroke-linejoin="round"/>
<path d="M25.6719 38.0399V6.64038" stroke="currentColor" stroke-width="1.8" stroke-miterlimit="10" stroke-linecap="round" stroke-linejoin="round"/>
<path d="M37.6492 25.935C41.0134 25.935 43.7407 23.1662 43.7407 19.7508C43.7407 16.3353 41.0134 13.5665 37.6492 13.5665C34.2849 13.5665 31.5576 16.3353 31.5576 19.7508C31.5576 23.1662 34.2849 25.935 37.6492 25.935Z" stroke="currentColor" stroke-width="1.8" stroke-miterlimit="10" stroke-linejoin="round"/>
<path d="M40.325 19.7506L36.2402 17.4023V22.1008L40.325 19.7506Z" stroke="currentColor" stroke-width="1.8" stroke-miterlimit="10" stroke-linejoin="round"/>
</svg>
