<svg width="1600" height="33" viewBox="0 0 1600 33" fill="none" xmlns="http://www.w3.org/2000/svg">
<path d="M72 0.906982L24 17L0 0.906982V33H1600V0.906982L1560 17L1544 0.906982L1496 17L1480 0.906982L1432 17L1416 0.906982L1368 17L1352 0.906982L1304 17L1288 0.906982L1240 17L1224 0.906982L1176 17L1160 0.906982L1112 17L1096 0.906982L1048 17L1032 0.906982L984 17L968 0.906982L920 17L904 0.906982L856 17L840 0.906982L792 17L776 0.906982L728 17L712 0.906982L664 17L648 0.906982L600 17L584 0.906982L536 17L520 0.906982L472 17L456 0.906982L408 17L392 0.906982L344 17L328 0.906982L280 17L264 0.906982L216 17L200 0.906982L152 17L136 0.906982L88 17L72 0.906982Z" fill="#1C212C"/>
</svg>
